%TF.GenerationSoftware,KiCad,Pcbnew,(6.0.7)*%
%TF.CreationDate,2022-10-27T22:38:12-07:00*%
%TF.ProjectId,3s25ABMS,33733235-4142-44d5-932e-6b696361645f,1.0*%
%TF.SameCoordinates,Original*%
%TF.FileFunction,Soldermask,Top*%
%TF.FilePolarity,Negative*%
%FSLAX46Y46*%
G04 Gerber Fmt 4.6, Leading zero omitted, Abs format (unit mm)*
G04 Created by KiCad (PCBNEW (6.0.7)) date 2022-10-27 22:38:12*
%MOMM*%
%LPD*%
G01*
G04 APERTURE LIST*
G04 Aperture macros list*
%AMRoundRect*
0 Rectangle with rounded corners*
0 $1 Rounding radius*
0 $2 $3 $4 $5 $6 $7 $8 $9 X,Y pos of 4 corners*
0 Add a 4 corners polygon primitive as box body*
4,1,4,$2,$3,$4,$5,$6,$7,$8,$9,$2,$3,0*
0 Add four circle primitives for the rounded corners*
1,1,$1+$1,$2,$3*
1,1,$1+$1,$4,$5*
1,1,$1+$1,$6,$7*
1,1,$1+$1,$8,$9*
0 Add four rect primitives between the rounded corners*
20,1,$1+$1,$2,$3,$4,$5,0*
20,1,$1+$1,$4,$5,$6,$7,0*
20,1,$1+$1,$6,$7,$8,$9,0*
20,1,$1+$1,$8,$9,$2,$3,0*%
G04 Aperture macros list end*
%ADD10RoundRect,0.250000X0.400000X1.450000X-0.400000X1.450000X-0.400000X-1.450000X0.400000X-1.450000X0*%
%ADD11C,4.000000*%
%ADD12C,0.900000*%
%ADD13C,8.000000*%
%ADD14RoundRect,0.250000X-0.400000X-1.450000X0.400000X-1.450000X0.400000X1.450000X-0.400000X1.450000X0*%
%ADD15RoundRect,0.500000X0.500000X1.000000X-0.500000X1.000000X-0.500000X-1.000000X0.500000X-1.000000X0*%
%ADD16RoundRect,0.500000X-0.500000X-1.000000X0.500000X-1.000000X0.500000X1.000000X-0.500000X1.000000X0*%
G04 APERTURE END LIST*
D10*
%TO.C,F2*%
X77225000Y-55000000D03*
X72775000Y-55000000D03*
%TD*%
D11*
%TO.C,U2*%
X120750000Y-115000000D03*
X130750000Y-115000000D03*
X144000000Y-67000000D03*
X106000000Y-67000000D03*
X106000000Y-116000000D03*
X144000000Y-116000000D03*
%TD*%
D12*
%TO.C,H1*%
X58000000Y-145000000D03*
X52000000Y-145000000D03*
X57121320Y-142878680D03*
D13*
X55000000Y-145000000D03*
D12*
X55000000Y-142000000D03*
X52878680Y-142878680D03*
X55000000Y-148000000D03*
X57121320Y-147121320D03*
X52878680Y-147121320D03*
%TD*%
%TO.C,H2*%
X57121320Y-52878680D03*
X55000000Y-52000000D03*
X52878680Y-57121320D03*
X58000000Y-55000000D03*
X52000000Y-55000000D03*
X57121320Y-57121320D03*
X55000000Y-58000000D03*
D13*
X55000000Y-55000000D03*
D12*
X52878680Y-52878680D03*
%TD*%
D14*
%TO.C,F1*%
X122775000Y-55000000D03*
X127225000Y-55000000D03*
%TD*%
D13*
%TO.C,H5*%
X110000000Y-145000000D03*
D12*
X107878680Y-142878680D03*
X107000000Y-145000000D03*
X113000000Y-145000000D03*
X110000000Y-148000000D03*
X107878680Y-147121320D03*
X112121320Y-142878680D03*
X110000000Y-142000000D03*
X112121320Y-147121320D03*
%TD*%
D15*
%TO.C,F4*%
X130750000Y-132500000D03*
X130750000Y-126180000D03*
X117290000Y-126180000D03*
X117290000Y-132500000D03*
%TD*%
D12*
%TO.C,H6*%
X87878680Y-142878680D03*
D13*
X90000000Y-145000000D03*
D12*
X90000000Y-148000000D03*
X92121320Y-142878680D03*
X90000000Y-142000000D03*
X87878680Y-147121320D03*
X93000000Y-145000000D03*
X87000000Y-145000000D03*
X92121320Y-147121320D03*
%TD*%
%TO.C,H4*%
X142878680Y-142878680D03*
D13*
X145000000Y-145000000D03*
D12*
X145000000Y-142000000D03*
X147121320Y-147121320D03*
X147121320Y-142878680D03*
X145000000Y-148000000D03*
X142000000Y-145000000D03*
X148000000Y-145000000D03*
X142878680Y-147121320D03*
%TD*%
%TO.C,H3*%
X145000000Y-58000000D03*
X147121320Y-52878680D03*
X142878680Y-57121320D03*
X142000000Y-55000000D03*
D13*
X145000000Y-55000000D03*
D12*
X147121320Y-57121320D03*
X145000000Y-52000000D03*
X142878680Y-52878680D03*
X148000000Y-55000000D03*
%TD*%
D11*
%TO.C,U1*%
X94000000Y-116000000D03*
X56000000Y-116000000D03*
X56000000Y-67000000D03*
X94000000Y-67000000D03*
X80750000Y-115000000D03*
X70750000Y-115000000D03*
%TD*%
D16*
%TO.C,F3*%
X80750000Y-125770000D03*
X80750000Y-132090000D03*
X94210000Y-125770000D03*
X94210000Y-132090000D03*
%TD*%
M02*
