%TF.GenerationSoftware,KiCad,Pcbnew,(6.0.7)*%
%TF.CreationDate,2022-10-27T22:38:07-07:00*%
%TF.ProjectId,3s25ABMS,33733235-4142-44d5-932e-6b696361645f,1.0*%
%TF.SameCoordinates,Original*%
%TF.FileFunction,Drillmap*%
%TF.FilePolarity,Positive*%
%FSLAX45Y45*%
G04 Gerber Fmt 4.5, Leading zero omitted, Abs format (unit mm)*
G04 Created by KiCad (PCBNEW (6.0.7)) date 2022-10-27 22:38:07*
%MOMM*%
%LPD*%
G01*
G04 APERTURE LIST*
%ADD10C,0.100000*%
%ADD11C,0.200000*%
%ADD12C,0.060000*%
%ADD13C,0.400000*%
G04 APERTURE END LIST*
D10*
X5000000Y-5000000D02*
X15000000Y-5000000D01*
X15000000Y-5000000D02*
X15000000Y-15000000D01*
X15000000Y-15000000D02*
X5000000Y-15000000D01*
X5000000Y-15000000D02*
X5000000Y-5000000D01*
D11*
D12*
X5170000Y-5470000D02*
X5230000Y-5530000D01*
X5230000Y-5470000D02*
X5170000Y-5530000D01*
X5170000Y-14470000D02*
X5230000Y-14530000D01*
X5230000Y-14470000D02*
X5170000Y-14530000D01*
X5257868Y-5257868D02*
X5317868Y-5317868D01*
X5317868Y-5257868D02*
X5257868Y-5317868D01*
X5257868Y-5682132D02*
X5317868Y-5742132D01*
X5317868Y-5682132D02*
X5257868Y-5742132D01*
X5257868Y-14257868D02*
X5317868Y-14317868D01*
X5317868Y-14257868D02*
X5257868Y-14317868D01*
X5257868Y-14682132D02*
X5317868Y-14742132D01*
X5317868Y-14682132D02*
X5257868Y-14742132D01*
X5470000Y-5170000D02*
X5530000Y-5230000D01*
X5530000Y-5170000D02*
X5470000Y-5230000D01*
X5470000Y-5770000D02*
X5530000Y-5830000D01*
X5530000Y-5770000D02*
X5470000Y-5830000D01*
X5470000Y-14170000D02*
X5530000Y-14230000D01*
X5530000Y-14170000D02*
X5470000Y-14230000D01*
X5470000Y-14770000D02*
X5530000Y-14830000D01*
X5530000Y-14770000D02*
X5470000Y-14830000D01*
X5682132Y-5257868D02*
X5742132Y-5317868D01*
X5742132Y-5257868D02*
X5682132Y-5317868D01*
X5682132Y-5682132D02*
X5742132Y-5742132D01*
X5742132Y-5682132D02*
X5682132Y-5742132D01*
X5682132Y-14257868D02*
X5742132Y-14317868D01*
X5742132Y-14257868D02*
X5682132Y-14317868D01*
X5682132Y-14682132D02*
X5742132Y-14742132D01*
X5742132Y-14682132D02*
X5682132Y-14742132D01*
X5770000Y-5470000D02*
X5830000Y-5530000D01*
X5830000Y-5470000D02*
X5770000Y-5530000D01*
X5770000Y-14470000D02*
X5830000Y-14530000D01*
X5830000Y-14470000D02*
X5770000Y-14530000D01*
X8670000Y-14470000D02*
X8730000Y-14530000D01*
X8730000Y-14470000D02*
X8670000Y-14530000D01*
X8757868Y-14257868D02*
X8817868Y-14317868D01*
X8817868Y-14257868D02*
X8757868Y-14317868D01*
X8757868Y-14682132D02*
X8817868Y-14742132D01*
X8817868Y-14682132D02*
X8757868Y-14742132D01*
X8970000Y-14170000D02*
X9030000Y-14230000D01*
X9030000Y-14170000D02*
X8970000Y-14230000D01*
X8970000Y-14770000D02*
X9030000Y-14830000D01*
X9030000Y-14770000D02*
X8970000Y-14830000D01*
X9182132Y-14257868D02*
X9242132Y-14317868D01*
X9242132Y-14257868D02*
X9182132Y-14317868D01*
X9182132Y-14682132D02*
X9242132Y-14742132D01*
X9242132Y-14682132D02*
X9182132Y-14742132D01*
X9270000Y-14470000D02*
X9330000Y-14530000D01*
X9330000Y-14470000D02*
X9270000Y-14530000D01*
X10670000Y-14470000D02*
X10730000Y-14530000D01*
X10730000Y-14470000D02*
X10670000Y-14530000D01*
X10757868Y-14257868D02*
X10817868Y-14317868D01*
X10817868Y-14257868D02*
X10757868Y-14317868D01*
X10757868Y-14682132D02*
X10817868Y-14742132D01*
X10817868Y-14682132D02*
X10757868Y-14742132D01*
X10970000Y-14170000D02*
X11030000Y-14230000D01*
X11030000Y-14170000D02*
X10970000Y-14230000D01*
X10970000Y-14770000D02*
X11030000Y-14830000D01*
X11030000Y-14770000D02*
X10970000Y-14830000D01*
X11182132Y-14257868D02*
X11242132Y-14317868D01*
X11242132Y-14257868D02*
X11182132Y-14317868D01*
X11182132Y-14682132D02*
X11242132Y-14742132D01*
X11242132Y-14682132D02*
X11182132Y-14742132D01*
X11270000Y-14470000D02*
X11330000Y-14530000D01*
X11330000Y-14470000D02*
X11270000Y-14530000D01*
X14170000Y-5470000D02*
X14230000Y-5530000D01*
X14230000Y-5470000D02*
X14170000Y-5530000D01*
X14170000Y-14470000D02*
X14230000Y-14530000D01*
X14230000Y-14470000D02*
X14170000Y-14530000D01*
X14257868Y-5257868D02*
X14317868Y-5317868D01*
X14317868Y-5257868D02*
X14257868Y-5317868D01*
X14257868Y-5682132D02*
X14317868Y-5742132D01*
X14317868Y-5682132D02*
X14257868Y-5742132D01*
X14257868Y-14257868D02*
X14317868Y-14317868D01*
X14317868Y-14257868D02*
X14257868Y-14317868D01*
X14257868Y-14682132D02*
X14317868Y-14742132D01*
X14317868Y-14682132D02*
X14257868Y-14742132D01*
X14470000Y-5170000D02*
X14530000Y-5230000D01*
X14530000Y-5170000D02*
X14470000Y-5230000D01*
X14470000Y-5770000D02*
X14530000Y-5830000D01*
X14530000Y-5770000D02*
X14470000Y-5830000D01*
X14470000Y-14170000D02*
X14530000Y-14230000D01*
X14530000Y-14170000D02*
X14470000Y-14230000D01*
X14470000Y-14770000D02*
X14530000Y-14830000D01*
X14530000Y-14770000D02*
X14470000Y-14830000D01*
X14682132Y-5257868D02*
X14742132Y-5317868D01*
X14742132Y-5257868D02*
X14682132Y-5317868D01*
X14682132Y-5682132D02*
X14742132Y-5742132D01*
X14742132Y-5682132D02*
X14682132Y-5742132D01*
X14682132Y-14257868D02*
X14742132Y-14317868D01*
X14742132Y-14257868D02*
X14682132Y-14317868D01*
X14682132Y-14682132D02*
X14742132Y-14742132D01*
X14742132Y-14682132D02*
X14682132Y-14742132D01*
X14770000Y-5470000D02*
X14830000Y-5530000D01*
X14830000Y-5470000D02*
X14770000Y-5530000D01*
X14770000Y-14470000D02*
X14830000Y-14530000D01*
X14830000Y-14470000D02*
X14770000Y-14530000D01*
D11*
X11850000Y-5500000D02*
G75*
G03*
X11850000Y-5500000I-100000J0D01*
G01*
X5600000Y-6600000D02*
X5600000Y-6800000D01*
X5500000Y-6700000D02*
X5700000Y-6700000D01*
X5600000Y-11500000D02*
X5600000Y-11700000D01*
X5500000Y-11600000D02*
X5700000Y-11600000D01*
X7075000Y-11400000D02*
X7075000Y-11600000D01*
X6975000Y-11500000D02*
X7175000Y-11500000D01*
X8075000Y-11400000D02*
X8075000Y-11600000D01*
X7975000Y-11500000D02*
X8175000Y-11500000D01*
X9400000Y-6600000D02*
X9400000Y-6800000D01*
X9300000Y-6700000D02*
X9500000Y-6700000D01*
X9400000Y-11500000D02*
X9400000Y-11700000D01*
X9300000Y-11600000D02*
X9500000Y-11600000D01*
X10600000Y-6600000D02*
X10600000Y-6800000D01*
X10500000Y-6700000D02*
X10700000Y-6700000D01*
X10600000Y-11500000D02*
X10600000Y-11700000D01*
X10500000Y-11600000D02*
X10700000Y-11600000D01*
X12075000Y-11400000D02*
X12075000Y-11600000D01*
X11975000Y-11500000D02*
X12175000Y-11500000D01*
X13075000Y-11400000D02*
X13075000Y-11600000D01*
X12975000Y-11500000D02*
X13175000Y-11500000D01*
X14400000Y-6600000D02*
X14400000Y-6800000D01*
X14300000Y-6700000D02*
X14500000Y-6700000D01*
X14400000Y-11500000D02*
X14400000Y-11700000D01*
X14300000Y-11600000D02*
X14500000Y-11600000D01*
D13*
X5641423Y-5641423D02*
X5641423Y-5358577D01*
X5358577Y-5358577D01*
X5358577Y-5641423D01*
X5641423Y-5641423D01*
X5641423Y-14641423D02*
X5641423Y-14358577D01*
X5358577Y-14358577D01*
X5358577Y-14641423D01*
X5641423Y-14641423D01*
X9141423Y-14641423D02*
X9141423Y-14358577D01*
X8858577Y-14358577D01*
X8858577Y-14641423D01*
X9141423Y-14641423D01*
X11141423Y-14641423D02*
X11141423Y-14358577D01*
X10858577Y-14358577D01*
X10858577Y-14641423D01*
X11141423Y-14641423D01*
X14641423Y-5641423D02*
X14641423Y-5358577D01*
X14358577Y-5358577D01*
X14358577Y-5641423D01*
X14641423Y-5641423D01*
X14641423Y-14641423D02*
X14641423Y-14358577D01*
X14358577Y-14358577D01*
X14358577Y-14641423D01*
X14641423Y-14641423D01*
D11*
X5252619Y-15315476D02*
X5252619Y-15115476D01*
X5300238Y-15115476D01*
X5328810Y-15125000D01*
X5347857Y-15144048D01*
X5357381Y-15163095D01*
X5366905Y-15201190D01*
X5366905Y-15229762D01*
X5357381Y-15267857D01*
X5347857Y-15286905D01*
X5328810Y-15305952D01*
X5300238Y-15315476D01*
X5252619Y-15315476D01*
X5452619Y-15315476D02*
X5452619Y-15182143D01*
X5452619Y-15220238D02*
X5462143Y-15201190D01*
X5471667Y-15191667D01*
X5490714Y-15182143D01*
X5509762Y-15182143D01*
X5576429Y-15315476D02*
X5576429Y-15182143D01*
X5576429Y-15115476D02*
X5566905Y-15125000D01*
X5576429Y-15134524D01*
X5585952Y-15125000D01*
X5576429Y-15115476D01*
X5576429Y-15134524D01*
X5700238Y-15315476D02*
X5681190Y-15305952D01*
X5671667Y-15286905D01*
X5671667Y-15115476D01*
X5805000Y-15315476D02*
X5785952Y-15305952D01*
X5776428Y-15286905D01*
X5776428Y-15115476D01*
X6033571Y-15315476D02*
X6033571Y-15115476D01*
X6100238Y-15258333D01*
X6166905Y-15115476D01*
X6166905Y-15315476D01*
X6347857Y-15315476D02*
X6347857Y-15210714D01*
X6338333Y-15191667D01*
X6319286Y-15182143D01*
X6281190Y-15182143D01*
X6262143Y-15191667D01*
X6347857Y-15305952D02*
X6328809Y-15315476D01*
X6281190Y-15315476D01*
X6262143Y-15305952D01*
X6252619Y-15286905D01*
X6252619Y-15267857D01*
X6262143Y-15248809D01*
X6281190Y-15239286D01*
X6328809Y-15239286D01*
X6347857Y-15229762D01*
X6443095Y-15182143D02*
X6443095Y-15382143D01*
X6443095Y-15191667D02*
X6462143Y-15182143D01*
X6500238Y-15182143D01*
X6519286Y-15191667D01*
X6528809Y-15201190D01*
X6538333Y-15220238D01*
X6538333Y-15277381D01*
X6528809Y-15296428D01*
X6519286Y-15305952D01*
X6500238Y-15315476D01*
X6462143Y-15315476D01*
X6443095Y-15305952D01*
X6624048Y-15296428D02*
X6633571Y-15305952D01*
X6624048Y-15315476D01*
X6614524Y-15305952D01*
X6624048Y-15296428D01*
X6624048Y-15315476D01*
X6624048Y-15191667D02*
X6633571Y-15201190D01*
X6624048Y-15210714D01*
X6614524Y-15201190D01*
X6624048Y-15191667D01*
X6624048Y-15210714D01*
D12*
X4935000Y-15615000D02*
X4995000Y-15675000D01*
X4995000Y-15615000D02*
X4935000Y-15675000D01*
D11*
X5290714Y-15535476D02*
X5309762Y-15535476D01*
X5328810Y-15545000D01*
X5338333Y-15554524D01*
X5347857Y-15573571D01*
X5357381Y-15611667D01*
X5357381Y-15659286D01*
X5347857Y-15697381D01*
X5338333Y-15716428D01*
X5328810Y-15725952D01*
X5309762Y-15735476D01*
X5290714Y-15735476D01*
X5271667Y-15725952D01*
X5262143Y-15716428D01*
X5252619Y-15697381D01*
X5243095Y-15659286D01*
X5243095Y-15611667D01*
X5252619Y-15573571D01*
X5262143Y-15554524D01*
X5271667Y-15545000D01*
X5290714Y-15535476D01*
X5443095Y-15716428D02*
X5452619Y-15725952D01*
X5443095Y-15735476D01*
X5433571Y-15725952D01*
X5443095Y-15716428D01*
X5443095Y-15735476D01*
X5624048Y-15535476D02*
X5585952Y-15535476D01*
X5566905Y-15545000D01*
X5557381Y-15554524D01*
X5538333Y-15583095D01*
X5528810Y-15621190D01*
X5528810Y-15697381D01*
X5538333Y-15716428D01*
X5547857Y-15725952D01*
X5566905Y-15735476D01*
X5605000Y-15735476D01*
X5624048Y-15725952D01*
X5633571Y-15716428D01*
X5643095Y-15697381D01*
X5643095Y-15649762D01*
X5633571Y-15630714D01*
X5624048Y-15621190D01*
X5605000Y-15611667D01*
X5566905Y-15611667D01*
X5547857Y-15621190D01*
X5538333Y-15630714D01*
X5528810Y-15649762D01*
X5766905Y-15535476D02*
X5785952Y-15535476D01*
X5805000Y-15545000D01*
X5814524Y-15554524D01*
X5824048Y-15573571D01*
X5833571Y-15611667D01*
X5833571Y-15659286D01*
X5824048Y-15697381D01*
X5814524Y-15716428D01*
X5805000Y-15725952D01*
X5785952Y-15735476D01*
X5766905Y-15735476D01*
X5747857Y-15725952D01*
X5738333Y-15716428D01*
X5728809Y-15697381D01*
X5719286Y-15659286D01*
X5719286Y-15611667D01*
X5728809Y-15573571D01*
X5738333Y-15554524D01*
X5747857Y-15545000D01*
X5766905Y-15535476D01*
X5957381Y-15535476D02*
X5976428Y-15535476D01*
X5995476Y-15545000D01*
X6005000Y-15554524D01*
X6014524Y-15573571D01*
X6024048Y-15611667D01*
X6024048Y-15659286D01*
X6014524Y-15697381D01*
X6005000Y-15716428D01*
X5995476Y-15725952D01*
X5976428Y-15735476D01*
X5957381Y-15735476D01*
X5938333Y-15725952D01*
X5928809Y-15716428D01*
X5919286Y-15697381D01*
X5909762Y-15659286D01*
X5909762Y-15611667D01*
X5919286Y-15573571D01*
X5928809Y-15554524D01*
X5938333Y-15545000D01*
X5957381Y-15535476D01*
X6109762Y-15735476D02*
X6109762Y-15602143D01*
X6109762Y-15621190D02*
X6119286Y-15611667D01*
X6138333Y-15602143D01*
X6166905Y-15602143D01*
X6185952Y-15611667D01*
X6195476Y-15630714D01*
X6195476Y-15735476D01*
X6195476Y-15630714D02*
X6205000Y-15611667D01*
X6224048Y-15602143D01*
X6252619Y-15602143D01*
X6271667Y-15611667D01*
X6281190Y-15630714D01*
X6281190Y-15735476D01*
X6376428Y-15735476D02*
X6376428Y-15602143D01*
X6376428Y-15621190D02*
X6385952Y-15611667D01*
X6405000Y-15602143D01*
X6433571Y-15602143D01*
X6452619Y-15611667D01*
X6462143Y-15630714D01*
X6462143Y-15735476D01*
X6462143Y-15630714D02*
X6471667Y-15611667D01*
X6490714Y-15602143D01*
X6519286Y-15602143D01*
X6538333Y-15611667D01*
X6547857Y-15630714D01*
X6547857Y-15735476D01*
X6938333Y-15525952D02*
X6766905Y-15783095D01*
X7195476Y-15535476D02*
X7214524Y-15535476D01*
X7233571Y-15545000D01*
X7243095Y-15554524D01*
X7252619Y-15573571D01*
X7262143Y-15611667D01*
X7262143Y-15659286D01*
X7252619Y-15697381D01*
X7243095Y-15716428D01*
X7233571Y-15725952D01*
X7214524Y-15735476D01*
X7195476Y-15735476D01*
X7176428Y-15725952D01*
X7166905Y-15716428D01*
X7157381Y-15697381D01*
X7147857Y-15659286D01*
X7147857Y-15611667D01*
X7157381Y-15573571D01*
X7166905Y-15554524D01*
X7176428Y-15545000D01*
X7195476Y-15535476D01*
X7347857Y-15716428D02*
X7357381Y-15725952D01*
X7347857Y-15735476D01*
X7338333Y-15725952D01*
X7347857Y-15716428D01*
X7347857Y-15735476D01*
X7481190Y-15535476D02*
X7500238Y-15535476D01*
X7519286Y-15545000D01*
X7528809Y-15554524D01*
X7538333Y-15573571D01*
X7547857Y-15611667D01*
X7547857Y-15659286D01*
X7538333Y-15697381D01*
X7528809Y-15716428D01*
X7519286Y-15725952D01*
X7500238Y-15735476D01*
X7481190Y-15735476D01*
X7462143Y-15725952D01*
X7452619Y-15716428D01*
X7443095Y-15697381D01*
X7433571Y-15659286D01*
X7433571Y-15611667D01*
X7443095Y-15573571D01*
X7452619Y-15554524D01*
X7462143Y-15545000D01*
X7481190Y-15535476D01*
X7624048Y-15554524D02*
X7633571Y-15545000D01*
X7652619Y-15535476D01*
X7700238Y-15535476D01*
X7719286Y-15545000D01*
X7728809Y-15554524D01*
X7738333Y-15573571D01*
X7738333Y-15592619D01*
X7728809Y-15621190D01*
X7614524Y-15735476D01*
X7738333Y-15735476D01*
X7805000Y-15535476D02*
X7928809Y-15535476D01*
X7862143Y-15611667D01*
X7890714Y-15611667D01*
X7909762Y-15621190D01*
X7919286Y-15630714D01*
X7928809Y-15649762D01*
X7928809Y-15697381D01*
X7919286Y-15716428D01*
X7909762Y-15725952D01*
X7890714Y-15735476D01*
X7833571Y-15735476D01*
X7814524Y-15725952D01*
X7805000Y-15716428D01*
X8100238Y-15535476D02*
X8062143Y-15535476D01*
X8043095Y-15545000D01*
X8033571Y-15554524D01*
X8014524Y-15583095D01*
X8005000Y-15621190D01*
X8005000Y-15697381D01*
X8014524Y-15716428D01*
X8024048Y-15725952D01*
X8043095Y-15735476D01*
X8081190Y-15735476D01*
X8100238Y-15725952D01*
X8109762Y-15716428D01*
X8119286Y-15697381D01*
X8119286Y-15649762D01*
X8109762Y-15630714D01*
X8100238Y-15621190D01*
X8081190Y-15611667D01*
X8043095Y-15611667D01*
X8024048Y-15621190D01*
X8014524Y-15630714D01*
X8005000Y-15649762D01*
X8195476Y-15535476D02*
X8195476Y-15573571D01*
X8271667Y-15535476D02*
X8271667Y-15573571D01*
X8566905Y-15811667D02*
X8557381Y-15802143D01*
X8538333Y-15773571D01*
X8528810Y-15754524D01*
X8519286Y-15725952D01*
X8509762Y-15678333D01*
X8509762Y-15640238D01*
X8519286Y-15592619D01*
X8528810Y-15564048D01*
X8538333Y-15545000D01*
X8557381Y-15516428D01*
X8566905Y-15506905D01*
X8728810Y-15602143D02*
X8728810Y-15735476D01*
X8681190Y-15525952D02*
X8633571Y-15668809D01*
X8757381Y-15668809D01*
X8862143Y-15621190D02*
X8843095Y-15611667D01*
X8833571Y-15602143D01*
X8824048Y-15583095D01*
X8824048Y-15573571D01*
X8833571Y-15554524D01*
X8843095Y-15545000D01*
X8862143Y-15535476D01*
X8900238Y-15535476D01*
X8919286Y-15545000D01*
X8928810Y-15554524D01*
X8938333Y-15573571D01*
X8938333Y-15583095D01*
X8928810Y-15602143D01*
X8919286Y-15611667D01*
X8900238Y-15621190D01*
X8862143Y-15621190D01*
X8843095Y-15630714D01*
X8833571Y-15640238D01*
X8824048Y-15659286D01*
X8824048Y-15697381D01*
X8833571Y-15716428D01*
X8843095Y-15725952D01*
X8862143Y-15735476D01*
X8900238Y-15735476D01*
X8919286Y-15725952D01*
X8928810Y-15716428D01*
X8938333Y-15697381D01*
X8938333Y-15659286D01*
X8928810Y-15640238D01*
X8919286Y-15630714D01*
X8900238Y-15621190D01*
X9176429Y-15735476D02*
X9176429Y-15535476D01*
X9262143Y-15735476D02*
X9262143Y-15630714D01*
X9252619Y-15611667D01*
X9233571Y-15602143D01*
X9205000Y-15602143D01*
X9185952Y-15611667D01*
X9176429Y-15621190D01*
X9385952Y-15735476D02*
X9366905Y-15725952D01*
X9357381Y-15716428D01*
X9347857Y-15697381D01*
X9347857Y-15640238D01*
X9357381Y-15621190D01*
X9366905Y-15611667D01*
X9385952Y-15602143D01*
X9414524Y-15602143D01*
X9433571Y-15611667D01*
X9443095Y-15621190D01*
X9452619Y-15640238D01*
X9452619Y-15697381D01*
X9443095Y-15716428D01*
X9433571Y-15725952D01*
X9414524Y-15735476D01*
X9385952Y-15735476D01*
X9566905Y-15735476D02*
X9547857Y-15725952D01*
X9538333Y-15706905D01*
X9538333Y-15535476D01*
X9719286Y-15725952D02*
X9700238Y-15735476D01*
X9662143Y-15735476D01*
X9643095Y-15725952D01*
X9633571Y-15706905D01*
X9633571Y-15630714D01*
X9643095Y-15611667D01*
X9662143Y-15602143D01*
X9700238Y-15602143D01*
X9719286Y-15611667D01*
X9728810Y-15630714D01*
X9728810Y-15649762D01*
X9633571Y-15668809D01*
X9805000Y-15725952D02*
X9824048Y-15735476D01*
X9862143Y-15735476D01*
X9881190Y-15725952D01*
X9890714Y-15706905D01*
X9890714Y-15697381D01*
X9881190Y-15678333D01*
X9862143Y-15668809D01*
X9833571Y-15668809D01*
X9814524Y-15659286D01*
X9805000Y-15640238D01*
X9805000Y-15630714D01*
X9814524Y-15611667D01*
X9833571Y-15602143D01*
X9862143Y-15602143D01*
X9881190Y-15611667D01*
X9957381Y-15811667D02*
X9966905Y-15802143D01*
X9985952Y-15773571D01*
X9995476Y-15754524D01*
X10005000Y-15725952D01*
X10014524Y-15678333D01*
X10014524Y-15640238D01*
X10005000Y-15592619D01*
X9995476Y-15564048D01*
X9985952Y-15545000D01*
X9966905Y-15516428D01*
X9957381Y-15506905D01*
X4995000Y-15909000D02*
G75*
G03*
X4995000Y-15909000I-100000J0D01*
G01*
X5243095Y-15818524D02*
X5252619Y-15809000D01*
X5271667Y-15799476D01*
X5319286Y-15799476D01*
X5338333Y-15809000D01*
X5347857Y-15818524D01*
X5357381Y-15837571D01*
X5357381Y-15856619D01*
X5347857Y-15885190D01*
X5233571Y-15999476D01*
X5357381Y-15999476D01*
X5443095Y-15980428D02*
X5452619Y-15989952D01*
X5443095Y-15999476D01*
X5433571Y-15989952D01*
X5443095Y-15980428D01*
X5443095Y-15999476D01*
X5576429Y-15799476D02*
X5595476Y-15799476D01*
X5614524Y-15809000D01*
X5624048Y-15818524D01*
X5633571Y-15837571D01*
X5643095Y-15875667D01*
X5643095Y-15923286D01*
X5633571Y-15961381D01*
X5624048Y-15980428D01*
X5614524Y-15989952D01*
X5595476Y-15999476D01*
X5576429Y-15999476D01*
X5557381Y-15989952D01*
X5547857Y-15980428D01*
X5538333Y-15961381D01*
X5528810Y-15923286D01*
X5528810Y-15875667D01*
X5538333Y-15837571D01*
X5547857Y-15818524D01*
X5557381Y-15809000D01*
X5576429Y-15799476D01*
X5766905Y-15799476D02*
X5785952Y-15799476D01*
X5805000Y-15809000D01*
X5814524Y-15818524D01*
X5824048Y-15837571D01*
X5833571Y-15875667D01*
X5833571Y-15923286D01*
X5824048Y-15961381D01*
X5814524Y-15980428D01*
X5805000Y-15989952D01*
X5785952Y-15999476D01*
X5766905Y-15999476D01*
X5747857Y-15989952D01*
X5738333Y-15980428D01*
X5728809Y-15961381D01*
X5719286Y-15923286D01*
X5719286Y-15875667D01*
X5728809Y-15837571D01*
X5738333Y-15818524D01*
X5747857Y-15809000D01*
X5766905Y-15799476D01*
X5957381Y-15799476D02*
X5976428Y-15799476D01*
X5995476Y-15809000D01*
X6005000Y-15818524D01*
X6014524Y-15837571D01*
X6024048Y-15875667D01*
X6024048Y-15923286D01*
X6014524Y-15961381D01*
X6005000Y-15980428D01*
X5995476Y-15989952D01*
X5976428Y-15999476D01*
X5957381Y-15999476D01*
X5938333Y-15989952D01*
X5928809Y-15980428D01*
X5919286Y-15961381D01*
X5909762Y-15923286D01*
X5909762Y-15875667D01*
X5919286Y-15837571D01*
X5928809Y-15818524D01*
X5938333Y-15809000D01*
X5957381Y-15799476D01*
X6109762Y-15999476D02*
X6109762Y-15866143D01*
X6109762Y-15885190D02*
X6119286Y-15875667D01*
X6138333Y-15866143D01*
X6166905Y-15866143D01*
X6185952Y-15875667D01*
X6195476Y-15894714D01*
X6195476Y-15999476D01*
X6195476Y-15894714D02*
X6205000Y-15875667D01*
X6224048Y-15866143D01*
X6252619Y-15866143D01*
X6271667Y-15875667D01*
X6281190Y-15894714D01*
X6281190Y-15999476D01*
X6376428Y-15999476D02*
X6376428Y-15866143D01*
X6376428Y-15885190D02*
X6385952Y-15875667D01*
X6405000Y-15866143D01*
X6433571Y-15866143D01*
X6452619Y-15875667D01*
X6462143Y-15894714D01*
X6462143Y-15999476D01*
X6462143Y-15894714D02*
X6471667Y-15875667D01*
X6490714Y-15866143D01*
X6519286Y-15866143D01*
X6538333Y-15875667D01*
X6547857Y-15894714D01*
X6547857Y-15999476D01*
X6938333Y-15789952D02*
X6766905Y-16047095D01*
X7195476Y-15799476D02*
X7214524Y-15799476D01*
X7233571Y-15809000D01*
X7243095Y-15818524D01*
X7252619Y-15837571D01*
X7262143Y-15875667D01*
X7262143Y-15923286D01*
X7252619Y-15961381D01*
X7243095Y-15980428D01*
X7233571Y-15989952D01*
X7214524Y-15999476D01*
X7195476Y-15999476D01*
X7176428Y-15989952D01*
X7166905Y-15980428D01*
X7157381Y-15961381D01*
X7147857Y-15923286D01*
X7147857Y-15875667D01*
X7157381Y-15837571D01*
X7166905Y-15818524D01*
X7176428Y-15809000D01*
X7195476Y-15799476D01*
X7347857Y-15980428D02*
X7357381Y-15989952D01*
X7347857Y-15999476D01*
X7338333Y-15989952D01*
X7347857Y-15980428D01*
X7347857Y-15999476D01*
X7481190Y-15799476D02*
X7500238Y-15799476D01*
X7519286Y-15809000D01*
X7528809Y-15818524D01*
X7538333Y-15837571D01*
X7547857Y-15875667D01*
X7547857Y-15923286D01*
X7538333Y-15961381D01*
X7528809Y-15980428D01*
X7519286Y-15989952D01*
X7500238Y-15999476D01*
X7481190Y-15999476D01*
X7462143Y-15989952D01*
X7452619Y-15980428D01*
X7443095Y-15961381D01*
X7433571Y-15923286D01*
X7433571Y-15875667D01*
X7443095Y-15837571D01*
X7452619Y-15818524D01*
X7462143Y-15809000D01*
X7481190Y-15799476D01*
X7614524Y-15799476D02*
X7747857Y-15799476D01*
X7662143Y-15999476D01*
X7852619Y-15885190D02*
X7833571Y-15875667D01*
X7824048Y-15866143D01*
X7814524Y-15847095D01*
X7814524Y-15837571D01*
X7824048Y-15818524D01*
X7833571Y-15809000D01*
X7852619Y-15799476D01*
X7890714Y-15799476D01*
X7909762Y-15809000D01*
X7919286Y-15818524D01*
X7928809Y-15837571D01*
X7928809Y-15847095D01*
X7919286Y-15866143D01*
X7909762Y-15875667D01*
X7890714Y-15885190D01*
X7852619Y-15885190D01*
X7833571Y-15894714D01*
X7824048Y-15904238D01*
X7814524Y-15923286D01*
X7814524Y-15961381D01*
X7824048Y-15980428D01*
X7833571Y-15989952D01*
X7852619Y-15999476D01*
X7890714Y-15999476D01*
X7909762Y-15989952D01*
X7919286Y-15980428D01*
X7928809Y-15961381D01*
X7928809Y-15923286D01*
X7919286Y-15904238D01*
X7909762Y-15894714D01*
X7890714Y-15885190D01*
X7995476Y-15799476D02*
X8128809Y-15799476D01*
X8043095Y-15999476D01*
X8195476Y-15799476D02*
X8195476Y-15837571D01*
X8271667Y-15799476D02*
X8271667Y-15837571D01*
X8566905Y-16075667D02*
X8557381Y-16066143D01*
X8538333Y-16037571D01*
X8528810Y-16018524D01*
X8519286Y-15989952D01*
X8509762Y-15942333D01*
X8509762Y-15904238D01*
X8519286Y-15856619D01*
X8528810Y-15828048D01*
X8538333Y-15809000D01*
X8557381Y-15780428D01*
X8566905Y-15770905D01*
X8747857Y-15999476D02*
X8633571Y-15999476D01*
X8690714Y-15999476D02*
X8690714Y-15799476D01*
X8671667Y-15828048D01*
X8652619Y-15847095D01*
X8633571Y-15856619D01*
X8985952Y-15999476D02*
X8985952Y-15799476D01*
X9071667Y-15999476D02*
X9071667Y-15894714D01*
X9062143Y-15875667D01*
X9043095Y-15866143D01*
X9014524Y-15866143D01*
X8995476Y-15875667D01*
X8985952Y-15885190D01*
X9195476Y-15999476D02*
X9176429Y-15989952D01*
X9166905Y-15980428D01*
X9157381Y-15961381D01*
X9157381Y-15904238D01*
X9166905Y-15885190D01*
X9176429Y-15875667D01*
X9195476Y-15866143D01*
X9224048Y-15866143D01*
X9243095Y-15875667D01*
X9252619Y-15885190D01*
X9262143Y-15904238D01*
X9262143Y-15961381D01*
X9252619Y-15980428D01*
X9243095Y-15989952D01*
X9224048Y-15999476D01*
X9195476Y-15999476D01*
X9376429Y-15999476D02*
X9357381Y-15989952D01*
X9347857Y-15970905D01*
X9347857Y-15799476D01*
X9528810Y-15989952D02*
X9509762Y-15999476D01*
X9471667Y-15999476D01*
X9452619Y-15989952D01*
X9443095Y-15970905D01*
X9443095Y-15894714D01*
X9452619Y-15875667D01*
X9471667Y-15866143D01*
X9509762Y-15866143D01*
X9528810Y-15875667D01*
X9538333Y-15894714D01*
X9538333Y-15913762D01*
X9443095Y-15932809D01*
X9605000Y-16075667D02*
X9614524Y-16066143D01*
X9633571Y-16037571D01*
X9643095Y-16018524D01*
X9652619Y-15989952D01*
X9662143Y-15942333D01*
X9662143Y-15904238D01*
X9652619Y-15856619D01*
X9643095Y-15828048D01*
X9633571Y-15809000D01*
X9614524Y-15780428D01*
X9605000Y-15770905D01*
X4895000Y-16129000D02*
X4895000Y-16329000D01*
X4795000Y-16229000D02*
X4995000Y-16229000D01*
X5243095Y-16138524D02*
X5252619Y-16129000D01*
X5271667Y-16119476D01*
X5319286Y-16119476D01*
X5338333Y-16129000D01*
X5347857Y-16138524D01*
X5357381Y-16157571D01*
X5357381Y-16176619D01*
X5347857Y-16205190D01*
X5233571Y-16319476D01*
X5357381Y-16319476D01*
X5443095Y-16300428D02*
X5452619Y-16309952D01*
X5443095Y-16319476D01*
X5433571Y-16309952D01*
X5443095Y-16300428D01*
X5443095Y-16319476D01*
X5576429Y-16119476D02*
X5595476Y-16119476D01*
X5614524Y-16129000D01*
X5624048Y-16138524D01*
X5633571Y-16157571D01*
X5643095Y-16195667D01*
X5643095Y-16243286D01*
X5633571Y-16281381D01*
X5624048Y-16300428D01*
X5614524Y-16309952D01*
X5595476Y-16319476D01*
X5576429Y-16319476D01*
X5557381Y-16309952D01*
X5547857Y-16300428D01*
X5538333Y-16281381D01*
X5528810Y-16243286D01*
X5528810Y-16195667D01*
X5538333Y-16157571D01*
X5547857Y-16138524D01*
X5557381Y-16129000D01*
X5576429Y-16119476D01*
X5766905Y-16119476D02*
X5785952Y-16119476D01*
X5805000Y-16129000D01*
X5814524Y-16138524D01*
X5824048Y-16157571D01*
X5833571Y-16195667D01*
X5833571Y-16243286D01*
X5824048Y-16281381D01*
X5814524Y-16300428D01*
X5805000Y-16309952D01*
X5785952Y-16319476D01*
X5766905Y-16319476D01*
X5747857Y-16309952D01*
X5738333Y-16300428D01*
X5728809Y-16281381D01*
X5719286Y-16243286D01*
X5719286Y-16195667D01*
X5728809Y-16157571D01*
X5738333Y-16138524D01*
X5747857Y-16129000D01*
X5766905Y-16119476D01*
X5957381Y-16119476D02*
X5976428Y-16119476D01*
X5995476Y-16129000D01*
X6005000Y-16138524D01*
X6014524Y-16157571D01*
X6024048Y-16195667D01*
X6024048Y-16243286D01*
X6014524Y-16281381D01*
X6005000Y-16300428D01*
X5995476Y-16309952D01*
X5976428Y-16319476D01*
X5957381Y-16319476D01*
X5938333Y-16309952D01*
X5928809Y-16300428D01*
X5919286Y-16281381D01*
X5909762Y-16243286D01*
X5909762Y-16195667D01*
X5919286Y-16157571D01*
X5928809Y-16138524D01*
X5938333Y-16129000D01*
X5957381Y-16119476D01*
X6109762Y-16319476D02*
X6109762Y-16186143D01*
X6109762Y-16205190D02*
X6119286Y-16195667D01*
X6138333Y-16186143D01*
X6166905Y-16186143D01*
X6185952Y-16195667D01*
X6195476Y-16214714D01*
X6195476Y-16319476D01*
X6195476Y-16214714D02*
X6205000Y-16195667D01*
X6224048Y-16186143D01*
X6252619Y-16186143D01*
X6271667Y-16195667D01*
X6281190Y-16214714D01*
X6281190Y-16319476D01*
X6376428Y-16319476D02*
X6376428Y-16186143D01*
X6376428Y-16205190D02*
X6385952Y-16195667D01*
X6405000Y-16186143D01*
X6433571Y-16186143D01*
X6452619Y-16195667D01*
X6462143Y-16214714D01*
X6462143Y-16319476D01*
X6462143Y-16214714D02*
X6471667Y-16195667D01*
X6490714Y-16186143D01*
X6519286Y-16186143D01*
X6538333Y-16195667D01*
X6547857Y-16214714D01*
X6547857Y-16319476D01*
X6938333Y-16109952D02*
X6766905Y-16367095D01*
X7195476Y-16119476D02*
X7214524Y-16119476D01*
X7233571Y-16129000D01*
X7243095Y-16138524D01*
X7252619Y-16157571D01*
X7262143Y-16195667D01*
X7262143Y-16243286D01*
X7252619Y-16281381D01*
X7243095Y-16300428D01*
X7233571Y-16309952D01*
X7214524Y-16319476D01*
X7195476Y-16319476D01*
X7176428Y-16309952D01*
X7166905Y-16300428D01*
X7157381Y-16281381D01*
X7147857Y-16243286D01*
X7147857Y-16195667D01*
X7157381Y-16157571D01*
X7166905Y-16138524D01*
X7176428Y-16129000D01*
X7195476Y-16119476D01*
X7347857Y-16300428D02*
X7357381Y-16309952D01*
X7347857Y-16319476D01*
X7338333Y-16309952D01*
X7347857Y-16300428D01*
X7347857Y-16319476D01*
X7481190Y-16119476D02*
X7500238Y-16119476D01*
X7519286Y-16129000D01*
X7528809Y-16138524D01*
X7538333Y-16157571D01*
X7547857Y-16195667D01*
X7547857Y-16243286D01*
X7538333Y-16281381D01*
X7528809Y-16300428D01*
X7519286Y-16309952D01*
X7500238Y-16319476D01*
X7481190Y-16319476D01*
X7462143Y-16309952D01*
X7452619Y-16300428D01*
X7443095Y-16281381D01*
X7433571Y-16243286D01*
X7433571Y-16195667D01*
X7443095Y-16157571D01*
X7452619Y-16138524D01*
X7462143Y-16129000D01*
X7481190Y-16119476D01*
X7614524Y-16119476D02*
X7747857Y-16119476D01*
X7662143Y-16319476D01*
X7852619Y-16205190D02*
X7833571Y-16195667D01*
X7824048Y-16186143D01*
X7814524Y-16167095D01*
X7814524Y-16157571D01*
X7824048Y-16138524D01*
X7833571Y-16129000D01*
X7852619Y-16119476D01*
X7890714Y-16119476D01*
X7909762Y-16129000D01*
X7919286Y-16138524D01*
X7928809Y-16157571D01*
X7928809Y-16167095D01*
X7919286Y-16186143D01*
X7909762Y-16195667D01*
X7890714Y-16205190D01*
X7852619Y-16205190D01*
X7833571Y-16214714D01*
X7824048Y-16224238D01*
X7814524Y-16243286D01*
X7814524Y-16281381D01*
X7824048Y-16300428D01*
X7833571Y-16309952D01*
X7852619Y-16319476D01*
X7890714Y-16319476D01*
X7909762Y-16309952D01*
X7919286Y-16300428D01*
X7928809Y-16281381D01*
X7928809Y-16243286D01*
X7919286Y-16224238D01*
X7909762Y-16214714D01*
X7890714Y-16205190D01*
X7995476Y-16119476D02*
X8128809Y-16119476D01*
X8043095Y-16319476D01*
X8195476Y-16119476D02*
X8195476Y-16157571D01*
X8271667Y-16119476D02*
X8271667Y-16157571D01*
X8566905Y-16395667D02*
X8557381Y-16386143D01*
X8538333Y-16357571D01*
X8528810Y-16338524D01*
X8519286Y-16309952D01*
X8509762Y-16262333D01*
X8509762Y-16224238D01*
X8519286Y-16176619D01*
X8528810Y-16148048D01*
X8538333Y-16129000D01*
X8557381Y-16100428D01*
X8566905Y-16090905D01*
X8747857Y-16319476D02*
X8633571Y-16319476D01*
X8690714Y-16319476D02*
X8690714Y-16119476D01*
X8671667Y-16148048D01*
X8652619Y-16167095D01*
X8633571Y-16176619D01*
X8824048Y-16138524D02*
X8833571Y-16129000D01*
X8852619Y-16119476D01*
X8900238Y-16119476D01*
X8919286Y-16129000D01*
X8928810Y-16138524D01*
X8938333Y-16157571D01*
X8938333Y-16176619D01*
X8928810Y-16205190D01*
X8814524Y-16319476D01*
X8938333Y-16319476D01*
X9176429Y-16319476D02*
X9176429Y-16119476D01*
X9262143Y-16319476D02*
X9262143Y-16214714D01*
X9252619Y-16195667D01*
X9233571Y-16186143D01*
X9205000Y-16186143D01*
X9185952Y-16195667D01*
X9176429Y-16205190D01*
X9385952Y-16319476D02*
X9366905Y-16309952D01*
X9357381Y-16300428D01*
X9347857Y-16281381D01*
X9347857Y-16224238D01*
X9357381Y-16205190D01*
X9366905Y-16195667D01*
X9385952Y-16186143D01*
X9414524Y-16186143D01*
X9433571Y-16195667D01*
X9443095Y-16205190D01*
X9452619Y-16224238D01*
X9452619Y-16281381D01*
X9443095Y-16300428D01*
X9433571Y-16309952D01*
X9414524Y-16319476D01*
X9385952Y-16319476D01*
X9566905Y-16319476D02*
X9547857Y-16309952D01*
X9538333Y-16290905D01*
X9538333Y-16119476D01*
X9719286Y-16309952D02*
X9700238Y-16319476D01*
X9662143Y-16319476D01*
X9643095Y-16309952D01*
X9633571Y-16290905D01*
X9633571Y-16214714D01*
X9643095Y-16195667D01*
X9662143Y-16186143D01*
X9700238Y-16186143D01*
X9719286Y-16195667D01*
X9728810Y-16214714D01*
X9728810Y-16233762D01*
X9633571Y-16252809D01*
X9805000Y-16309952D02*
X9824048Y-16319476D01*
X9862143Y-16319476D01*
X9881190Y-16309952D01*
X9890714Y-16290905D01*
X9890714Y-16281381D01*
X9881190Y-16262333D01*
X9862143Y-16252809D01*
X9833571Y-16252809D01*
X9814524Y-16243286D01*
X9805000Y-16224238D01*
X9805000Y-16214714D01*
X9814524Y-16195667D01*
X9833571Y-16186143D01*
X9862143Y-16186143D01*
X9881190Y-16195667D01*
X9957381Y-16395667D02*
X9966905Y-16386143D01*
X9985952Y-16357571D01*
X9995476Y-16338524D01*
X10005000Y-16309952D01*
X10014524Y-16262333D01*
X10014524Y-16224238D01*
X10005000Y-16176619D01*
X9995476Y-16148048D01*
X9985952Y-16129000D01*
X9966905Y-16100428D01*
X9957381Y-16090905D01*
X4965711Y-16619711D02*
X4965711Y-16478289D01*
X4824289Y-16478289D01*
X4824289Y-16619711D01*
X4965711Y-16619711D01*
X5338333Y-16506143D02*
X5338333Y-16639476D01*
X5290714Y-16429952D02*
X5243095Y-16572809D01*
X5366905Y-16572809D01*
X5443095Y-16620428D02*
X5452619Y-16629952D01*
X5443095Y-16639476D01*
X5433571Y-16629952D01*
X5443095Y-16620428D01*
X5443095Y-16639476D01*
X5576429Y-16439476D02*
X5595476Y-16439476D01*
X5614524Y-16449000D01*
X5624048Y-16458524D01*
X5633571Y-16477571D01*
X5643095Y-16515667D01*
X5643095Y-16563286D01*
X5633571Y-16601381D01*
X5624048Y-16620428D01*
X5614524Y-16629952D01*
X5595476Y-16639476D01*
X5576429Y-16639476D01*
X5557381Y-16629952D01*
X5547857Y-16620428D01*
X5538333Y-16601381D01*
X5528810Y-16563286D01*
X5528810Y-16515667D01*
X5538333Y-16477571D01*
X5547857Y-16458524D01*
X5557381Y-16449000D01*
X5576429Y-16439476D01*
X5766905Y-16439476D02*
X5785952Y-16439476D01*
X5805000Y-16449000D01*
X5814524Y-16458524D01*
X5824048Y-16477571D01*
X5833571Y-16515667D01*
X5833571Y-16563286D01*
X5824048Y-16601381D01*
X5814524Y-16620428D01*
X5805000Y-16629952D01*
X5785952Y-16639476D01*
X5766905Y-16639476D01*
X5747857Y-16629952D01*
X5738333Y-16620428D01*
X5728809Y-16601381D01*
X5719286Y-16563286D01*
X5719286Y-16515667D01*
X5728809Y-16477571D01*
X5738333Y-16458524D01*
X5747857Y-16449000D01*
X5766905Y-16439476D01*
X5957381Y-16439476D02*
X5976428Y-16439476D01*
X5995476Y-16449000D01*
X6005000Y-16458524D01*
X6014524Y-16477571D01*
X6024048Y-16515667D01*
X6024048Y-16563286D01*
X6014524Y-16601381D01*
X6005000Y-16620428D01*
X5995476Y-16629952D01*
X5976428Y-16639476D01*
X5957381Y-16639476D01*
X5938333Y-16629952D01*
X5928809Y-16620428D01*
X5919286Y-16601381D01*
X5909762Y-16563286D01*
X5909762Y-16515667D01*
X5919286Y-16477571D01*
X5928809Y-16458524D01*
X5938333Y-16449000D01*
X5957381Y-16439476D01*
X6109762Y-16639476D02*
X6109762Y-16506143D01*
X6109762Y-16525190D02*
X6119286Y-16515667D01*
X6138333Y-16506143D01*
X6166905Y-16506143D01*
X6185952Y-16515667D01*
X6195476Y-16534714D01*
X6195476Y-16639476D01*
X6195476Y-16534714D02*
X6205000Y-16515667D01*
X6224048Y-16506143D01*
X6252619Y-16506143D01*
X6271667Y-16515667D01*
X6281190Y-16534714D01*
X6281190Y-16639476D01*
X6376428Y-16639476D02*
X6376428Y-16506143D01*
X6376428Y-16525190D02*
X6385952Y-16515667D01*
X6405000Y-16506143D01*
X6433571Y-16506143D01*
X6452619Y-16515667D01*
X6462143Y-16534714D01*
X6462143Y-16639476D01*
X6462143Y-16534714D02*
X6471667Y-16515667D01*
X6490714Y-16506143D01*
X6519286Y-16506143D01*
X6538333Y-16515667D01*
X6547857Y-16534714D01*
X6547857Y-16639476D01*
X6938333Y-16429952D02*
X6766905Y-16687095D01*
X7195476Y-16439476D02*
X7214524Y-16439476D01*
X7233571Y-16449000D01*
X7243095Y-16458524D01*
X7252619Y-16477571D01*
X7262143Y-16515667D01*
X7262143Y-16563286D01*
X7252619Y-16601381D01*
X7243095Y-16620428D01*
X7233571Y-16629952D01*
X7214524Y-16639476D01*
X7195476Y-16639476D01*
X7176428Y-16629952D01*
X7166905Y-16620428D01*
X7157381Y-16601381D01*
X7147857Y-16563286D01*
X7147857Y-16515667D01*
X7157381Y-16477571D01*
X7166905Y-16458524D01*
X7176428Y-16449000D01*
X7195476Y-16439476D01*
X7347857Y-16620428D02*
X7357381Y-16629952D01*
X7347857Y-16639476D01*
X7338333Y-16629952D01*
X7347857Y-16620428D01*
X7347857Y-16639476D01*
X7547857Y-16639476D02*
X7433571Y-16639476D01*
X7490714Y-16639476D02*
X7490714Y-16439476D01*
X7471667Y-16468048D01*
X7452619Y-16487095D01*
X7433571Y-16496619D01*
X7728809Y-16439476D02*
X7633571Y-16439476D01*
X7624048Y-16534714D01*
X7633571Y-16525190D01*
X7652619Y-16515667D01*
X7700238Y-16515667D01*
X7719286Y-16525190D01*
X7728809Y-16534714D01*
X7738333Y-16553762D01*
X7738333Y-16601381D01*
X7728809Y-16620428D01*
X7719286Y-16629952D01*
X7700238Y-16639476D01*
X7652619Y-16639476D01*
X7633571Y-16629952D01*
X7624048Y-16620428D01*
X7805000Y-16439476D02*
X7938333Y-16439476D01*
X7852619Y-16639476D01*
X8109762Y-16439476D02*
X8014524Y-16439476D01*
X8005000Y-16534714D01*
X8014524Y-16525190D01*
X8033571Y-16515667D01*
X8081190Y-16515667D01*
X8100238Y-16525190D01*
X8109762Y-16534714D01*
X8119286Y-16553762D01*
X8119286Y-16601381D01*
X8109762Y-16620428D01*
X8100238Y-16629952D01*
X8081190Y-16639476D01*
X8033571Y-16639476D01*
X8014524Y-16629952D01*
X8005000Y-16620428D01*
X8195476Y-16439476D02*
X8195476Y-16477571D01*
X8271667Y-16439476D02*
X8271667Y-16477571D01*
X8566905Y-16715667D02*
X8557381Y-16706143D01*
X8538333Y-16677571D01*
X8528810Y-16658524D01*
X8519286Y-16629952D01*
X8509762Y-16582333D01*
X8509762Y-16544238D01*
X8519286Y-16496619D01*
X8528810Y-16468048D01*
X8538333Y-16449000D01*
X8557381Y-16420428D01*
X8566905Y-16410905D01*
X8728810Y-16439476D02*
X8690714Y-16439476D01*
X8671667Y-16449000D01*
X8662143Y-16458524D01*
X8643095Y-16487095D01*
X8633571Y-16525190D01*
X8633571Y-16601381D01*
X8643095Y-16620428D01*
X8652619Y-16629952D01*
X8671667Y-16639476D01*
X8709762Y-16639476D01*
X8728810Y-16629952D01*
X8738333Y-16620428D01*
X8747857Y-16601381D01*
X8747857Y-16553762D01*
X8738333Y-16534714D01*
X8728810Y-16525190D01*
X8709762Y-16515667D01*
X8671667Y-16515667D01*
X8652619Y-16525190D01*
X8643095Y-16534714D01*
X8633571Y-16553762D01*
X8985952Y-16639476D02*
X8985952Y-16439476D01*
X9071667Y-16639476D02*
X9071667Y-16534714D01*
X9062143Y-16515667D01*
X9043095Y-16506143D01*
X9014524Y-16506143D01*
X8995476Y-16515667D01*
X8985952Y-16525190D01*
X9195476Y-16639476D02*
X9176429Y-16629952D01*
X9166905Y-16620428D01*
X9157381Y-16601381D01*
X9157381Y-16544238D01*
X9166905Y-16525190D01*
X9176429Y-16515667D01*
X9195476Y-16506143D01*
X9224048Y-16506143D01*
X9243095Y-16515667D01*
X9252619Y-16525190D01*
X9262143Y-16544238D01*
X9262143Y-16601381D01*
X9252619Y-16620428D01*
X9243095Y-16629952D01*
X9224048Y-16639476D01*
X9195476Y-16639476D01*
X9376429Y-16639476D02*
X9357381Y-16629952D01*
X9347857Y-16610905D01*
X9347857Y-16439476D01*
X9528810Y-16629952D02*
X9509762Y-16639476D01*
X9471667Y-16639476D01*
X9452619Y-16629952D01*
X9443095Y-16610905D01*
X9443095Y-16534714D01*
X9452619Y-16515667D01*
X9471667Y-16506143D01*
X9509762Y-16506143D01*
X9528810Y-16515667D01*
X9538333Y-16534714D01*
X9538333Y-16553762D01*
X9443095Y-16572809D01*
X9614524Y-16629952D02*
X9633571Y-16639476D01*
X9671667Y-16639476D01*
X9690714Y-16629952D01*
X9700238Y-16610905D01*
X9700238Y-16601381D01*
X9690714Y-16582333D01*
X9671667Y-16572809D01*
X9643095Y-16572809D01*
X9624048Y-16563286D01*
X9614524Y-16544238D01*
X9614524Y-16534714D01*
X9624048Y-16515667D01*
X9643095Y-16506143D01*
X9671667Y-16506143D01*
X9690714Y-16515667D01*
X9766905Y-16715667D02*
X9776429Y-16706143D01*
X9795476Y-16677571D01*
X9805000Y-16658524D01*
X9814524Y-16629952D01*
X9824048Y-16582333D01*
X9824048Y-16544238D01*
X9814524Y-16496619D01*
X9805000Y-16468048D01*
X9795476Y-16449000D01*
X9776429Y-16420428D01*
X9766905Y-16410905D01*
M02*
