%TF.GenerationSoftware,KiCad,Pcbnew,(6.0.7)*%
%TF.CreationDate,2022-10-27T22:38:12-07:00*%
%TF.ProjectId,3s25ABMS,33733235-4142-44d5-932e-6b696361645f,1.0*%
%TF.SameCoordinates,Original*%
%TF.FileFunction,Copper,L4,Bot*%
%TF.FilePolarity,Positive*%
%FSLAX46Y46*%
G04 Gerber Fmt 4.6, Leading zero omitted, Abs format (unit mm)*
G04 Created by KiCad (PCBNEW (6.0.7)) date 2022-10-27 22:38:12*
%MOMM*%
%LPD*%
G01*
G04 APERTURE LIST*
%TA.AperFunction,ComponentPad*%
%ADD10C,4.000000*%
%TD*%
%TA.AperFunction,ComponentPad*%
%ADD11C,0.900000*%
%TD*%
%TA.AperFunction,ComponentPad*%
%ADD12C,8.000000*%
%TD*%
%TA.AperFunction,ViaPad*%
%ADD13C,4.000000*%
%TD*%
%TA.AperFunction,Conductor*%
%ADD14C,3.000000*%
%TD*%
G04 APERTURE END LIST*
D10*
%TO.P,U2,6,P-*%
%TO.N,Net-(H6-Pad1)*%
X120750000Y-115000000D03*
%TO.P,U2,5,P+*%
%TO.N,Net-(F4-Pad1)*%
X130750000Y-115000000D03*
%TO.P,U2,4,B2*%
%TO.N,B2*%
X144000000Y-67000000D03*
%TO.P,U2,3,B-*%
%TO.N,B-*%
X106000000Y-67000000D03*
%TO.P,U2,2,B1*%
%TO.N,B1*%
X106000000Y-116000000D03*
%TO.P,U2,1,B+*%
%TO.N,B+*%
X144000000Y-116000000D03*
%TD*%
D11*
%TO.P,H1,1,1*%
%TO.N,B+*%
X58000000Y-145000000D03*
X52000000Y-145000000D03*
X57121320Y-142878680D03*
D12*
X55000000Y-145000000D03*
D11*
X55000000Y-142000000D03*
X52878680Y-142878680D03*
X55000000Y-148000000D03*
X57121320Y-147121320D03*
X52878680Y-147121320D03*
%TD*%
%TO.P,H2,1,1*%
%TO.N,Net-(F2-Pad2)*%
X57121320Y-52878680D03*
X55000000Y-52000000D03*
X52878680Y-57121320D03*
X58000000Y-55000000D03*
X52000000Y-55000000D03*
X57121320Y-57121320D03*
X55000000Y-58000000D03*
D12*
X55000000Y-55000000D03*
D11*
X52878680Y-52878680D03*
%TD*%
D12*
%TO.P,H5,1,1*%
%TO.N,Net-(F3-Pad2)*%
X110000000Y-145000000D03*
D11*
X107878680Y-142878680D03*
X107000000Y-145000000D03*
X113000000Y-145000000D03*
X110000000Y-148000000D03*
X107878680Y-147121320D03*
X112121320Y-142878680D03*
X110000000Y-142000000D03*
X112121320Y-147121320D03*
%TD*%
%TO.P,H6,1,1*%
%TO.N,Net-(H6-Pad1)*%
X87878680Y-142878680D03*
D12*
X90000000Y-145000000D03*
D11*
X90000000Y-148000000D03*
X92121320Y-142878680D03*
X90000000Y-142000000D03*
X87878680Y-147121320D03*
X93000000Y-145000000D03*
X87000000Y-145000000D03*
X92121320Y-147121320D03*
%TD*%
%TO.P,H4,1,1*%
%TO.N,B-*%
X142878680Y-142878680D03*
D12*
X145000000Y-145000000D03*
D11*
X145000000Y-142000000D03*
X147121320Y-147121320D03*
X147121320Y-142878680D03*
X145000000Y-148000000D03*
X142000000Y-145000000D03*
X148000000Y-145000000D03*
X142878680Y-147121320D03*
%TD*%
%TO.P,H3,1,1*%
%TO.N,Net-(F1-Pad2)*%
X145000000Y-58000000D03*
X147121320Y-52878680D03*
X142878680Y-57121320D03*
X142000000Y-55000000D03*
D12*
X145000000Y-55000000D03*
D11*
X147121320Y-57121320D03*
X145000000Y-52000000D03*
X142878680Y-52878680D03*
X148000000Y-55000000D03*
%TD*%
D10*
%TO.P,U1,1,B+*%
%TO.N,B+*%
X94000000Y-116000000D03*
%TO.P,U1,2,B1*%
%TO.N,B1*%
X56000000Y-116000000D03*
%TO.P,U1,3,B-*%
%TO.N,B-*%
X56000000Y-67000000D03*
%TO.P,U1,4,B2*%
%TO.N,B2*%
X94000000Y-67000000D03*
%TO.P,U1,5,P+*%
%TO.N,Net-(F3-Pad1)*%
X80750000Y-115000000D03*
%TO.P,U1,6,P-*%
%TO.N,Net-(H6-Pad1)*%
X70750000Y-115000000D03*
%TD*%
D13*
%TO.N,B1*%
X117500000Y-55000000D03*
%TD*%
D14*
%TO.N,B1*%
X56000000Y-87400000D02*
X56000000Y-116000000D01*
X117500000Y-55000000D02*
X88400000Y-55000000D01*
X88400000Y-55000000D02*
X56000000Y-87400000D01*
X117500000Y-104500000D02*
X117500000Y-55000000D01*
X106000000Y-116000000D02*
X117500000Y-104500000D01*
%TD*%
%TA.AperFunction,Conductor*%
%TO.N,Net-(H6-Pad1)*%
G36*
X73819409Y-110020002D02*
G01*
X73836044Y-110032767D01*
X73843014Y-110039103D01*
X75958757Y-111962506D01*
X75995707Y-112023129D01*
X76000000Y-112055738D01*
X76000000Y-117000000D01*
X78000000Y-119000000D01*
X114000000Y-119000000D01*
X116000000Y-117000000D01*
X116000000Y-116945987D01*
X119168721Y-116945987D01*
X119177548Y-116957605D01*
X119400281Y-117119430D01*
X119406961Y-117123670D01*
X119676572Y-117271890D01*
X119683707Y-117275247D01*
X119969770Y-117388508D01*
X119977296Y-117390953D01*
X120275279Y-117467462D01*
X120283050Y-117468945D01*
X120588278Y-117507503D01*
X120596169Y-117508000D01*
X120903831Y-117508000D01*
X120911722Y-117507503D01*
X121216950Y-117468945D01*
X121224721Y-117467462D01*
X121522704Y-117390953D01*
X121530230Y-117388508D01*
X121816293Y-117275247D01*
X121823428Y-117271890D01*
X122093039Y-117123670D01*
X122099719Y-117119430D01*
X122322823Y-116957336D01*
X122331246Y-116946413D01*
X122324342Y-116933552D01*
X120762812Y-115372022D01*
X120748868Y-115364408D01*
X120747035Y-115364539D01*
X120740420Y-115368790D01*
X119175334Y-116933876D01*
X119168721Y-116945987D01*
X116000000Y-116945987D01*
X116000000Y-115003958D01*
X118237290Y-115003958D01*
X118256607Y-115310994D01*
X118257600Y-115318855D01*
X118315246Y-115621046D01*
X118317217Y-115628723D01*
X118412284Y-115921309D01*
X118415199Y-115928672D01*
X118546189Y-116207041D01*
X118550001Y-116213974D01*
X118714851Y-116473736D01*
X118719495Y-116480129D01*
X118794497Y-116570790D01*
X118807014Y-116579245D01*
X118817752Y-116573038D01*
X120377978Y-115012812D01*
X120384356Y-115001132D01*
X121114408Y-115001132D01*
X121114539Y-115002965D01*
X121118790Y-115009580D01*
X122681145Y-116571935D01*
X122694407Y-116579177D01*
X122704512Y-116571988D01*
X122780505Y-116480129D01*
X122785149Y-116473736D01*
X122949999Y-116213974D01*
X122953811Y-116207041D01*
X123084801Y-115928672D01*
X123087716Y-115921309D01*
X123182783Y-115628723D01*
X123184754Y-115621046D01*
X123242400Y-115318855D01*
X123243393Y-115310994D01*
X123262710Y-115003958D01*
X123262710Y-114996042D01*
X123243393Y-114689006D01*
X123242400Y-114681145D01*
X123184754Y-114378954D01*
X123182783Y-114371277D01*
X123087716Y-114078691D01*
X123084801Y-114071328D01*
X122953811Y-113792959D01*
X122949999Y-113786026D01*
X122785149Y-113526264D01*
X122780505Y-113519871D01*
X122705503Y-113429210D01*
X122692986Y-113420755D01*
X122682248Y-113426962D01*
X121122022Y-114987188D01*
X121114408Y-115001132D01*
X120384356Y-115001132D01*
X120385592Y-114998868D01*
X120385461Y-114997035D01*
X120381210Y-114990420D01*
X118818855Y-113428065D01*
X118805593Y-113420823D01*
X118795488Y-113428012D01*
X118719495Y-113519871D01*
X118714851Y-113526264D01*
X118550001Y-113786026D01*
X118546189Y-113792959D01*
X118415199Y-114071328D01*
X118412284Y-114078691D01*
X118317217Y-114371277D01*
X118315246Y-114378954D01*
X118257600Y-114681145D01*
X118256607Y-114689006D01*
X118237290Y-114996042D01*
X118237290Y-115003958D01*
X116000000Y-115003958D01*
X116000000Y-113053587D01*
X119168754Y-113053587D01*
X119175658Y-113066448D01*
X120737188Y-114627978D01*
X120751132Y-114635592D01*
X120752965Y-114635461D01*
X120759580Y-114631210D01*
X122324666Y-113066124D01*
X122331279Y-113054013D01*
X122322452Y-113042395D01*
X122099719Y-112880570D01*
X122093039Y-112876330D01*
X121823428Y-112728110D01*
X121816293Y-112724753D01*
X121530230Y-112611492D01*
X121522704Y-112609047D01*
X121224721Y-112532538D01*
X121216950Y-112531055D01*
X120911722Y-112492497D01*
X120903831Y-112492000D01*
X120596169Y-112492000D01*
X120588278Y-112492497D01*
X120283050Y-112531055D01*
X120275279Y-112532538D01*
X119977296Y-112609047D01*
X119969770Y-112611492D01*
X119683707Y-112724753D01*
X119676572Y-112728110D01*
X119406961Y-112876330D01*
X119400281Y-112880570D01*
X119177177Y-113042664D01*
X119168754Y-113053587D01*
X116000000Y-113053587D01*
X116000000Y-112150400D01*
X116020002Y-112082279D01*
X116034759Y-112063503D01*
X117962759Y-110039103D01*
X118024223Y-110003569D01*
X118054000Y-110000000D01*
X124847810Y-110000000D01*
X124915931Y-110020002D01*
X124936905Y-110036905D01*
X126863095Y-111963095D01*
X126897121Y-112025407D01*
X126900000Y-112052190D01*
X126900000Y-118946750D01*
X126879998Y-119014871D01*
X126861814Y-119037109D01*
X95559937Y-149455861D01*
X95497144Y-149488991D01*
X95472125Y-149491500D01*
X91557210Y-149491500D01*
X91489089Y-149471498D01*
X91442596Y-149417842D01*
X91432492Y-149347568D01*
X91461986Y-149282988D01*
X91517021Y-149246081D01*
X91629233Y-149208318D01*
X91634563Y-149206250D01*
X92003946Y-149043332D01*
X92009053Y-149040797D01*
X92362145Y-148845075D01*
X92367024Y-148842074D01*
X92700898Y-148615174D01*
X92705511Y-148611723D01*
X92991829Y-148376539D01*
X93000290Y-148364106D01*
X92994040Y-148353250D01*
X92647408Y-148006618D01*
X91762111Y-147121320D01*
X91236023Y-146595233D01*
X90012812Y-145372022D01*
X89998868Y-145364408D01*
X89997035Y-145364539D01*
X89990420Y-145368790D01*
X88763978Y-146595232D01*
X87878680Y-147480529D01*
X87352593Y-148006617D01*
X87007723Y-148351487D01*
X87000109Y-148365431D01*
X87000190Y-148366564D01*
X87005168Y-148374136D01*
X87025401Y-148393539D01*
X87029678Y-148397283D01*
X87345218Y-148649175D01*
X87349801Y-148652505D01*
X87686867Y-148874759D01*
X87691763Y-148877677D01*
X88047543Y-149068444D01*
X88052717Y-149070923D01*
X88424339Y-149228668D01*
X88429680Y-149230654D01*
X88476020Y-149245532D01*
X88534766Y-149285400D01*
X88562631Y-149350700D01*
X88550769Y-149420699D01*
X88502945Y-149473172D01*
X88437503Y-149491500D01*
X84758897Y-149491500D01*
X84690776Y-149471498D01*
X84651469Y-149431343D01*
X82030263Y-145154638D01*
X85489964Y-145154638D01*
X85490163Y-145160343D01*
X85522540Y-145562753D01*
X85523258Y-145568430D01*
X85591970Y-145966229D01*
X85593201Y-145971829D01*
X85697689Y-146361786D01*
X85699413Y-146367219D01*
X85838817Y-146746108D01*
X85841025Y-146751362D01*
X86014192Y-147116050D01*
X86016877Y-147121099D01*
X86222390Y-147468606D01*
X86225500Y-147473358D01*
X86461668Y-147800812D01*
X86465208Y-147805278D01*
X86625528Y-147989704D01*
X86638657Y-147998113D01*
X86648570Y-147992220D01*
X86993382Y-147647408D01*
X87878680Y-146762111D01*
X87950260Y-146690531D01*
X88404767Y-146236023D01*
X89627978Y-145012812D01*
X89634356Y-145001132D01*
X90364408Y-145001132D01*
X90364539Y-145002965D01*
X90368790Y-145009580D01*
X91595232Y-146236022D01*
X92049739Y-146690530D01*
X92121319Y-146762110D01*
X93006617Y-147647407D01*
X93350688Y-147991478D01*
X93364134Y-147998820D01*
X93373970Y-147991900D01*
X93573611Y-147755657D01*
X93577097Y-147751130D01*
X93808659Y-147420424D01*
X93811716Y-147415608D01*
X94012350Y-147065281D01*
X94014962Y-147060199D01*
X94183020Y-146693127D01*
X94185159Y-146687834D01*
X94319255Y-146307047D01*
X94320908Y-146301573D01*
X94419939Y-145910206D01*
X94421090Y-145904600D01*
X94484245Y-145505854D01*
X94484880Y-145500192D01*
X94511709Y-145096260D01*
X94511843Y-145092753D01*
X94512796Y-145001773D01*
X94512734Y-144998225D01*
X94494371Y-144593843D01*
X94493855Y-144588165D01*
X94439063Y-144188177D01*
X94438036Y-144182577D01*
X94347216Y-143789198D01*
X94345682Y-143783702D01*
X94219588Y-143400183D01*
X94217558Y-143394841D01*
X94057226Y-143024336D01*
X94054722Y-143019202D01*
X93861471Y-142664752D01*
X93858508Y-142659861D01*
X93633930Y-142324389D01*
X93630537Y-142319787D01*
X93376832Y-142006489D01*
X93363963Y-141999226D01*
X93362596Y-141999305D01*
X93355268Y-142003942D01*
X93006618Y-142352592D01*
X92121320Y-143237889D01*
X91595233Y-143763977D01*
X90372022Y-144987188D01*
X90364408Y-145001132D01*
X89634356Y-145001132D01*
X89635592Y-144998868D01*
X89635461Y-144997035D01*
X89631210Y-144990420D01*
X88404768Y-143763978D01*
X87519471Y-142878680D01*
X86993383Y-142352593D01*
X86650424Y-142009634D01*
X86636480Y-142002020D01*
X86636287Y-142002033D01*
X86627465Y-142008012D01*
X86524743Y-142121298D01*
X86521091Y-142125712D01*
X86278139Y-142448120D01*
X86274906Y-142452843D01*
X86062173Y-142795946D01*
X86059379Y-142800946D01*
X85878624Y-143161905D01*
X85876290Y-143167147D01*
X85728992Y-143543009D01*
X85727149Y-143548422D01*
X85614517Y-143936103D01*
X85613175Y-143941653D01*
X85536142Y-144337952D01*
X85535309Y-144343593D01*
X85494512Y-144745234D01*
X85494192Y-144750958D01*
X85489964Y-145154638D01*
X82030263Y-145154638D01*
X79875341Y-141638713D01*
X87001723Y-141638713D01*
X87001735Y-141639144D01*
X87007102Y-141647892D01*
X87352592Y-141993382D01*
X87809334Y-142450125D01*
X87878679Y-142519470D01*
X88763977Y-143404767D01*
X89987188Y-144627978D01*
X90001132Y-144635592D01*
X90002965Y-144635461D01*
X90009580Y-144631210D01*
X91236022Y-143404768D01*
X92121320Y-142519471D01*
X92190665Y-142450126D01*
X92647407Y-141993383D01*
X92990943Y-141649847D01*
X92998351Y-141636280D01*
X92991609Y-141626624D01*
X92780533Y-141445711D01*
X92776040Y-141442200D01*
X92446969Y-141208341D01*
X92442146Y-141205233D01*
X92093242Y-141002166D01*
X92088177Y-140999519D01*
X91722296Y-140828905D01*
X91717003Y-140826724D01*
X91337166Y-140689973D01*
X91331706Y-140688284D01*
X90941036Y-140586522D01*
X90935446Y-140585334D01*
X90537154Y-140519397D01*
X90531490Y-140518721D01*
X90128851Y-140489153D01*
X90123150Y-140488994D01*
X89719489Y-140496040D01*
X89713801Y-140496398D01*
X89312457Y-140539998D01*
X89306787Y-140540876D01*
X88911058Y-140620669D01*
X88905512Y-140622051D01*
X88518627Y-140737387D01*
X88513223Y-140739269D01*
X88138396Y-140889189D01*
X88133189Y-140891551D01*
X87773475Y-141074834D01*
X87768510Y-141077655D01*
X87426897Y-141292781D01*
X87422202Y-141296044D01*
X87101494Y-141541243D01*
X87097114Y-141544917D01*
X87009910Y-141625106D01*
X87001723Y-141638713D01*
X79875341Y-141638713D01*
X66018572Y-119030302D01*
X66000000Y-118964459D01*
X66000000Y-116945987D01*
X69168721Y-116945987D01*
X69177548Y-116957605D01*
X69400281Y-117119430D01*
X69406961Y-117123670D01*
X69676572Y-117271890D01*
X69683707Y-117275247D01*
X69969770Y-117388508D01*
X69977296Y-117390953D01*
X70275279Y-117467462D01*
X70283050Y-117468945D01*
X70588278Y-117507503D01*
X70596169Y-117508000D01*
X70903831Y-117508000D01*
X70911722Y-117507503D01*
X71216950Y-117468945D01*
X71224721Y-117467462D01*
X71522704Y-117390953D01*
X71530230Y-117388508D01*
X71816293Y-117275247D01*
X71823428Y-117271890D01*
X72093039Y-117123670D01*
X72099719Y-117119430D01*
X72322823Y-116957336D01*
X72331246Y-116946413D01*
X72324342Y-116933552D01*
X70762812Y-115372022D01*
X70748868Y-115364408D01*
X70747035Y-115364539D01*
X70740420Y-115368790D01*
X69175334Y-116933876D01*
X69168721Y-116945987D01*
X66000000Y-116945987D01*
X66000000Y-115003958D01*
X68237290Y-115003958D01*
X68256607Y-115310994D01*
X68257600Y-115318855D01*
X68315246Y-115621046D01*
X68317217Y-115628723D01*
X68412284Y-115921309D01*
X68415199Y-115928672D01*
X68546189Y-116207041D01*
X68550001Y-116213974D01*
X68714851Y-116473736D01*
X68719495Y-116480129D01*
X68794497Y-116570790D01*
X68807014Y-116579245D01*
X68817752Y-116573038D01*
X70377978Y-115012812D01*
X70384356Y-115001132D01*
X71114408Y-115001132D01*
X71114539Y-115002965D01*
X71118790Y-115009580D01*
X72681145Y-116571935D01*
X72694407Y-116579177D01*
X72704512Y-116571988D01*
X72780505Y-116480129D01*
X72785149Y-116473736D01*
X72949999Y-116213974D01*
X72953811Y-116207041D01*
X73084801Y-115928672D01*
X73087716Y-115921309D01*
X73182783Y-115628723D01*
X73184754Y-115621046D01*
X73242400Y-115318855D01*
X73243393Y-115310994D01*
X73262710Y-115003958D01*
X73262710Y-114996042D01*
X73243393Y-114689006D01*
X73242400Y-114681145D01*
X73184754Y-114378954D01*
X73182783Y-114371277D01*
X73087716Y-114078691D01*
X73084801Y-114071328D01*
X72953811Y-113792959D01*
X72949999Y-113786026D01*
X72785149Y-113526264D01*
X72780505Y-113519871D01*
X72705503Y-113429210D01*
X72692986Y-113420755D01*
X72682248Y-113426962D01*
X71122022Y-114987188D01*
X71114408Y-115001132D01*
X70384356Y-115001132D01*
X70385592Y-114998868D01*
X70385461Y-114997035D01*
X70381210Y-114990420D01*
X68818855Y-113428065D01*
X68805593Y-113420823D01*
X68795488Y-113428012D01*
X68719495Y-113519871D01*
X68714851Y-113526264D01*
X68550001Y-113786026D01*
X68546189Y-113792959D01*
X68415199Y-114071328D01*
X68412284Y-114078691D01*
X68317217Y-114371277D01*
X68315246Y-114378954D01*
X68257600Y-114681145D01*
X68256607Y-114689006D01*
X68237290Y-114996042D01*
X68237290Y-115003958D01*
X66000000Y-115003958D01*
X66000000Y-113053587D01*
X69168754Y-113053587D01*
X69175658Y-113066448D01*
X70737188Y-114627978D01*
X70751132Y-114635592D01*
X70752965Y-114635461D01*
X70759580Y-114631210D01*
X72324666Y-113066124D01*
X72331279Y-113054013D01*
X72322452Y-113042395D01*
X72099719Y-112880570D01*
X72093039Y-112876330D01*
X71823428Y-112728110D01*
X71816293Y-112724753D01*
X71530230Y-112611492D01*
X71522704Y-112609047D01*
X71224721Y-112532538D01*
X71216950Y-112531055D01*
X70911722Y-112492497D01*
X70903831Y-112492000D01*
X70596169Y-112492000D01*
X70588278Y-112492497D01*
X70283050Y-112531055D01*
X70275279Y-112532538D01*
X69977296Y-112609047D01*
X69969770Y-112611492D01*
X69683707Y-112724753D01*
X69676572Y-112728110D01*
X69406961Y-112876330D01*
X69400281Y-112880570D01*
X69177177Y-113042664D01*
X69168754Y-113053587D01*
X66000000Y-113053587D01*
X66000000Y-112052190D01*
X66020002Y-111984069D01*
X66036905Y-111963095D01*
X67963095Y-110036905D01*
X68025407Y-110002879D01*
X68052190Y-110000000D01*
X73751288Y-110000000D01*
X73819409Y-110020002D01*
G37*
%TD.AperFunction*%
%TD*%
M02*
