%TF.GenerationSoftware,KiCad,Pcbnew,(6.0.7)*%
%TF.CreationDate,2022-10-27T22:38:12-07:00*%
%TF.ProjectId,3s25ABMS,33733235-4142-44d5-932e-6b696361645f,1.0*%
%TF.SameCoordinates,Original*%
%TF.FileFunction,Soldermask,Bot*%
%TF.FilePolarity,Negative*%
%FSLAX46Y46*%
G04 Gerber Fmt 4.6, Leading zero omitted, Abs format (unit mm)*
G04 Created by KiCad (PCBNEW (6.0.7)) date 2022-10-27 22:38:12*
%MOMM*%
%LPD*%
G01*
G04 APERTURE LIST*
%ADD10C,4.000000*%
%ADD11C,0.900000*%
%ADD12C,8.000000*%
G04 APERTURE END LIST*
D10*
%TO.C,U2*%
X120750000Y-115000000D03*
X130750000Y-115000000D03*
X144000000Y-67000000D03*
X106000000Y-67000000D03*
X106000000Y-116000000D03*
X144000000Y-116000000D03*
%TD*%
D11*
%TO.C,H1*%
X58000000Y-145000000D03*
X52000000Y-145000000D03*
X57121320Y-142878680D03*
D12*
X55000000Y-145000000D03*
D11*
X55000000Y-142000000D03*
X52878680Y-142878680D03*
X55000000Y-148000000D03*
X57121320Y-147121320D03*
X52878680Y-147121320D03*
%TD*%
%TO.C,H2*%
X57121320Y-52878680D03*
X55000000Y-52000000D03*
X52878680Y-57121320D03*
X58000000Y-55000000D03*
X52000000Y-55000000D03*
X57121320Y-57121320D03*
X55000000Y-58000000D03*
D12*
X55000000Y-55000000D03*
D11*
X52878680Y-52878680D03*
%TD*%
D12*
%TO.C,H5*%
X110000000Y-145000000D03*
D11*
X107878680Y-142878680D03*
X107000000Y-145000000D03*
X113000000Y-145000000D03*
X110000000Y-148000000D03*
X107878680Y-147121320D03*
X112121320Y-142878680D03*
X110000000Y-142000000D03*
X112121320Y-147121320D03*
%TD*%
%TO.C,H6*%
X87878680Y-142878680D03*
D12*
X90000000Y-145000000D03*
D11*
X90000000Y-148000000D03*
X92121320Y-142878680D03*
X90000000Y-142000000D03*
X87878680Y-147121320D03*
X93000000Y-145000000D03*
X87000000Y-145000000D03*
X92121320Y-147121320D03*
%TD*%
%TO.C,H4*%
X142878680Y-142878680D03*
D12*
X145000000Y-145000000D03*
D11*
X145000000Y-142000000D03*
X147121320Y-147121320D03*
X147121320Y-142878680D03*
X145000000Y-148000000D03*
X142000000Y-145000000D03*
X148000000Y-145000000D03*
X142878680Y-147121320D03*
%TD*%
%TO.C,H3*%
X145000000Y-58000000D03*
X147121320Y-52878680D03*
X142878680Y-57121320D03*
X142000000Y-55000000D03*
D12*
X145000000Y-55000000D03*
D11*
X147121320Y-57121320D03*
X145000000Y-52000000D03*
X142878680Y-52878680D03*
X148000000Y-55000000D03*
%TD*%
D10*
%TO.C,U1*%
X94000000Y-116000000D03*
X56000000Y-116000000D03*
X56000000Y-67000000D03*
X94000000Y-67000000D03*
X80750000Y-115000000D03*
X70750000Y-115000000D03*
%TD*%
M02*
