%TF.GenerationSoftware,KiCad,Pcbnew,(6.0.7)*%
%TF.CreationDate,2022-10-27T22:38:12-07:00*%
%TF.ProjectId,3s25ABMS,33733235-4142-44d5-932e-6b696361645f,1.0*%
%TF.SameCoordinates,Original*%
%TF.FileFunction,Legend,Bot*%
%TF.FilePolarity,Positive*%
%FSLAX46Y46*%
G04 Gerber Fmt 4.6, Leading zero omitted, Abs format (unit mm)*
G04 Created by KiCad (PCBNEW (6.0.7)) date 2022-10-27 22:38:12*
%MOMM*%
%LPD*%
G01*
G04 APERTURE LIST*
%ADD10C,0.150000*%
%ADD11C,0.050000*%
G04 APERTURE END LIST*
D10*
%TO.C,U2*%
X130247619Y-122280952D02*
X131247619Y-122280952D01*
X131247619Y-121900000D01*
X131200000Y-121804761D01*
X131152380Y-121757142D01*
X131057142Y-121709523D01*
X130914285Y-121709523D01*
X130819047Y-121757142D01*
X130771428Y-121804761D01*
X130723809Y-121900000D01*
X130723809Y-122280952D01*
X130628571Y-121280952D02*
X130628571Y-120519047D01*
X130247619Y-120900000D02*
X131009523Y-120900000D01*
X104947619Y-104671428D02*
X104947619Y-104052380D01*
X104566666Y-104385714D01*
X104566666Y-104242857D01*
X104519047Y-104147619D01*
X104471428Y-104100000D01*
X104376190Y-104052380D01*
X104138095Y-104052380D01*
X104042857Y-104100000D01*
X103995238Y-104147619D01*
X103947619Y-104242857D01*
X103947619Y-104528571D01*
X103995238Y-104623809D01*
X104042857Y-104671428D01*
X103995238Y-103671428D02*
X103947619Y-103576190D01*
X103947619Y-103385714D01*
X103995238Y-103290476D01*
X104090476Y-103242857D01*
X104138095Y-103242857D01*
X104233333Y-103290476D01*
X104280952Y-103385714D01*
X104280952Y-103528571D01*
X104328571Y-103623809D01*
X104423809Y-103671428D01*
X104471428Y-103671428D01*
X104566666Y-103623809D01*
X104614285Y-103528571D01*
X104614285Y-103385714D01*
X104566666Y-103290476D01*
X104852380Y-102100000D02*
X104900000Y-102052380D01*
X104947619Y-101957142D01*
X104947619Y-101719047D01*
X104900000Y-101623809D01*
X104852380Y-101576190D01*
X104757142Y-101528571D01*
X104661904Y-101528571D01*
X104519047Y-101576190D01*
X103947619Y-102147619D01*
X103947619Y-101528571D01*
X104947619Y-100623809D02*
X104947619Y-101100000D01*
X104471428Y-101147619D01*
X104519047Y-101100000D01*
X104566666Y-101004761D01*
X104566666Y-100766666D01*
X104519047Y-100671428D01*
X104471428Y-100623809D01*
X104376190Y-100576190D01*
X104138095Y-100576190D01*
X104042857Y-100623809D01*
X103995238Y-100671428D01*
X103947619Y-100766666D01*
X103947619Y-101004761D01*
X103995238Y-101100000D01*
X104042857Y-101147619D01*
X104233333Y-100195238D02*
X104233333Y-99719047D01*
X103947619Y-100290476D02*
X104947619Y-99957142D01*
X103947619Y-99623809D01*
X104471428Y-98195238D02*
X104423809Y-98052380D01*
X104376190Y-98004761D01*
X104280952Y-97957142D01*
X104138095Y-97957142D01*
X104042857Y-98004761D01*
X103995238Y-98052380D01*
X103947619Y-98147619D01*
X103947619Y-98528571D01*
X104947619Y-98528571D01*
X104947619Y-98195238D01*
X104900000Y-98100000D01*
X104852380Y-98052380D01*
X104757142Y-98004761D01*
X104661904Y-98004761D01*
X104566666Y-98052380D01*
X104519047Y-98100000D01*
X104471428Y-98195238D01*
X104471428Y-98528571D01*
X103947619Y-97100000D02*
X104471428Y-97100000D01*
X104566666Y-97147619D01*
X104614285Y-97242857D01*
X104614285Y-97433333D01*
X104566666Y-97528571D01*
X103995238Y-97100000D02*
X103947619Y-97195238D01*
X103947619Y-97433333D01*
X103995238Y-97528571D01*
X104090476Y-97576190D01*
X104185714Y-97576190D01*
X104280952Y-97528571D01*
X104328571Y-97433333D01*
X104328571Y-97195238D01*
X104376190Y-97100000D01*
X104614285Y-96766666D02*
X104614285Y-96385714D01*
X104947619Y-96623809D02*
X104090476Y-96623809D01*
X103995238Y-96576190D01*
X103947619Y-96480952D01*
X103947619Y-96385714D01*
X104614285Y-96195238D02*
X104614285Y-95814285D01*
X104947619Y-96052380D02*
X104090476Y-96052380D01*
X103995238Y-96004761D01*
X103947619Y-95909523D01*
X103947619Y-95814285D01*
X103995238Y-95100000D02*
X103947619Y-95195238D01*
X103947619Y-95385714D01*
X103995238Y-95480952D01*
X104090476Y-95528571D01*
X104471428Y-95528571D01*
X104566666Y-95480952D01*
X104614285Y-95385714D01*
X104614285Y-95195238D01*
X104566666Y-95100000D01*
X104471428Y-95052380D01*
X104376190Y-95052380D01*
X104280952Y-95528571D01*
X103947619Y-94623809D02*
X104614285Y-94623809D01*
X104423809Y-94623809D02*
X104519047Y-94576190D01*
X104566666Y-94528571D01*
X104614285Y-94433333D01*
X104614285Y-94338095D01*
X104614285Y-94100000D02*
X103947619Y-93861904D01*
X104614285Y-93623809D02*
X103947619Y-93861904D01*
X103709523Y-93957142D01*
X103661904Y-94004761D01*
X103614285Y-94100000D01*
X103947619Y-92480952D02*
X104947619Y-92480952D01*
X104233333Y-92147619D01*
X104947619Y-91814285D01*
X103947619Y-91814285D01*
X103947619Y-90909523D02*
X104471428Y-90909523D01*
X104566666Y-90957142D01*
X104614285Y-91052380D01*
X104614285Y-91242857D01*
X104566666Y-91338095D01*
X103995238Y-90909523D02*
X103947619Y-91004761D01*
X103947619Y-91242857D01*
X103995238Y-91338095D01*
X104090476Y-91385714D01*
X104185714Y-91385714D01*
X104280952Y-91338095D01*
X104328571Y-91242857D01*
X104328571Y-91004761D01*
X104376190Y-90909523D01*
X104614285Y-90433333D02*
X103947619Y-90433333D01*
X104519047Y-90433333D02*
X104566666Y-90385714D01*
X104614285Y-90290476D01*
X104614285Y-90147619D01*
X104566666Y-90052380D01*
X104471428Y-90004761D01*
X103947619Y-90004761D01*
X103947619Y-89100000D02*
X104471428Y-89100000D01*
X104566666Y-89147619D01*
X104614285Y-89242857D01*
X104614285Y-89433333D01*
X104566666Y-89528571D01*
X103995238Y-89100000D02*
X103947619Y-89195238D01*
X103947619Y-89433333D01*
X103995238Y-89528571D01*
X104090476Y-89576190D01*
X104185714Y-89576190D01*
X104280952Y-89528571D01*
X104328571Y-89433333D01*
X104328571Y-89195238D01*
X104376190Y-89100000D01*
X104614285Y-88195238D02*
X103804761Y-88195238D01*
X103709523Y-88242857D01*
X103661904Y-88290476D01*
X103614285Y-88385714D01*
X103614285Y-88528571D01*
X103661904Y-88623809D01*
X103995238Y-88195238D02*
X103947619Y-88290476D01*
X103947619Y-88480952D01*
X103995238Y-88576190D01*
X104042857Y-88623809D01*
X104138095Y-88671428D01*
X104423809Y-88671428D01*
X104519047Y-88623809D01*
X104566666Y-88576190D01*
X104614285Y-88480952D01*
X104614285Y-88290476D01*
X104566666Y-88195238D01*
X103995238Y-87338095D02*
X103947619Y-87433333D01*
X103947619Y-87623809D01*
X103995238Y-87719047D01*
X104090476Y-87766666D01*
X104471428Y-87766666D01*
X104566666Y-87719047D01*
X104614285Y-87623809D01*
X104614285Y-87433333D01*
X104566666Y-87338095D01*
X104471428Y-87290476D01*
X104376190Y-87290476D01*
X104280952Y-87766666D01*
X103947619Y-86861904D02*
X104614285Y-86861904D01*
X104519047Y-86861904D02*
X104566666Y-86814285D01*
X104614285Y-86719047D01*
X104614285Y-86576190D01*
X104566666Y-86480952D01*
X104471428Y-86433333D01*
X103947619Y-86433333D01*
X104471428Y-86433333D02*
X104566666Y-86385714D01*
X104614285Y-86290476D01*
X104614285Y-86147619D01*
X104566666Y-86052380D01*
X104471428Y-86004761D01*
X103947619Y-86004761D01*
X103995238Y-85147619D02*
X103947619Y-85242857D01*
X103947619Y-85433333D01*
X103995238Y-85528571D01*
X104090476Y-85576190D01*
X104471428Y-85576190D01*
X104566666Y-85528571D01*
X104614285Y-85433333D01*
X104614285Y-85242857D01*
X104566666Y-85147619D01*
X104471428Y-85100000D01*
X104376190Y-85100000D01*
X104280952Y-85576190D01*
X104614285Y-84671428D02*
X103947619Y-84671428D01*
X104519047Y-84671428D02*
X104566666Y-84623809D01*
X104614285Y-84528571D01*
X104614285Y-84385714D01*
X104566666Y-84290476D01*
X104471428Y-84242857D01*
X103947619Y-84242857D01*
X104614285Y-83909523D02*
X104614285Y-83528571D01*
X104947619Y-83766666D02*
X104090476Y-83766666D01*
X103995238Y-83719047D01*
X103947619Y-83623809D01*
X103947619Y-83528571D01*
X103995238Y-82480952D02*
X103947619Y-82338095D01*
X103947619Y-82100000D01*
X103995238Y-82004761D01*
X104042857Y-81957142D01*
X104138095Y-81909523D01*
X104233333Y-81909523D01*
X104328571Y-81957142D01*
X104376190Y-82004761D01*
X104423809Y-82100000D01*
X104471428Y-82290476D01*
X104519047Y-82385714D01*
X104566666Y-82433333D01*
X104661904Y-82480952D01*
X104757142Y-82480952D01*
X104852380Y-82433333D01*
X104900000Y-82385714D01*
X104947619Y-82290476D01*
X104947619Y-82052380D01*
X104900000Y-81909523D01*
X104614285Y-81576190D02*
X103947619Y-81338095D01*
X104614285Y-81100000D02*
X103947619Y-81338095D01*
X103709523Y-81433333D01*
X103661904Y-81480952D01*
X103614285Y-81576190D01*
X103995238Y-80766666D02*
X103947619Y-80671428D01*
X103947619Y-80480952D01*
X103995238Y-80385714D01*
X104090476Y-80338095D01*
X104138095Y-80338095D01*
X104233333Y-80385714D01*
X104280952Y-80480952D01*
X104280952Y-80623809D01*
X104328571Y-80719047D01*
X104423809Y-80766666D01*
X104471428Y-80766666D01*
X104566666Y-80719047D01*
X104614285Y-80623809D01*
X104614285Y-80480952D01*
X104566666Y-80385714D01*
X104614285Y-80052380D02*
X104614285Y-79671428D01*
X104947619Y-79909523D02*
X104090476Y-79909523D01*
X103995238Y-79861904D01*
X103947619Y-79766666D01*
X103947619Y-79671428D01*
X103995238Y-78957142D02*
X103947619Y-79052380D01*
X103947619Y-79242857D01*
X103995238Y-79338095D01*
X104090476Y-79385714D01*
X104471428Y-79385714D01*
X104566666Y-79338095D01*
X104614285Y-79242857D01*
X104614285Y-79052380D01*
X104566666Y-78957142D01*
X104471428Y-78909523D01*
X104376190Y-78909523D01*
X104280952Y-79385714D01*
X103947619Y-78480952D02*
X104614285Y-78480952D01*
X104519047Y-78480952D02*
X104566666Y-78433333D01*
X104614285Y-78338095D01*
X104614285Y-78195238D01*
X104566666Y-78100000D01*
X104471428Y-78052380D01*
X103947619Y-78052380D01*
X104471428Y-78052380D02*
X104566666Y-78004761D01*
X104614285Y-77909523D01*
X104614285Y-77766666D01*
X104566666Y-77671428D01*
X104471428Y-77623809D01*
X103947619Y-77623809D01*
X144071428Y-112047619D02*
X144023809Y-111904761D01*
X143976190Y-111857142D01*
X143880952Y-111809523D01*
X143738095Y-111809523D01*
X143642857Y-111857142D01*
X143595238Y-111904761D01*
X143547619Y-112000000D01*
X143547619Y-112380952D01*
X144547619Y-112380952D01*
X144547619Y-112047619D01*
X144500000Y-111952380D01*
X144452380Y-111904761D01*
X144357142Y-111857142D01*
X144261904Y-111857142D01*
X144166666Y-111904761D01*
X144119047Y-111952380D01*
X144071428Y-112047619D01*
X144071428Y-112380952D01*
X143928571Y-111380952D02*
X143928571Y-110619047D01*
X143547619Y-111000000D02*
X144309523Y-111000000D01*
X143771428Y-71004761D02*
X143723809Y-70861904D01*
X143676190Y-70814285D01*
X143580952Y-70766666D01*
X143438095Y-70766666D01*
X143342857Y-70814285D01*
X143295238Y-70861904D01*
X143247619Y-70957142D01*
X143247619Y-71338095D01*
X144247619Y-71338095D01*
X144247619Y-71004761D01*
X144200000Y-70909523D01*
X144152380Y-70861904D01*
X144057142Y-70814285D01*
X143961904Y-70814285D01*
X143866666Y-70861904D01*
X143819047Y-70909523D01*
X143771428Y-71004761D01*
X143771428Y-71338095D01*
X144152380Y-70385714D02*
X144200000Y-70338095D01*
X144247619Y-70242857D01*
X144247619Y-70004761D01*
X144200000Y-69909523D01*
X144152380Y-69861904D01*
X144057142Y-69814285D01*
X143961904Y-69814285D01*
X143819047Y-69861904D01*
X143247619Y-70433333D01*
X143247619Y-69814285D01*
X105771428Y-112804761D02*
X105723809Y-112661904D01*
X105676190Y-112614285D01*
X105580952Y-112566666D01*
X105438095Y-112566666D01*
X105342857Y-112614285D01*
X105295238Y-112661904D01*
X105247619Y-112757142D01*
X105247619Y-113138095D01*
X106247619Y-113138095D01*
X106247619Y-112804761D01*
X106200000Y-112709523D01*
X106152380Y-112661904D01*
X106057142Y-112614285D01*
X105961904Y-112614285D01*
X105866666Y-112661904D01*
X105819047Y-112709523D01*
X105771428Y-112804761D01*
X105771428Y-113138095D01*
X105247619Y-111614285D02*
X105247619Y-112185714D01*
X105247619Y-111900000D02*
X106247619Y-111900000D01*
X106104761Y-111995238D01*
X106009523Y-112090476D01*
X105961904Y-112185714D01*
X105871428Y-71447619D02*
X105823809Y-71304761D01*
X105776190Y-71257142D01*
X105680952Y-71209523D01*
X105538095Y-71209523D01*
X105442857Y-71257142D01*
X105395238Y-71304761D01*
X105347619Y-71400000D01*
X105347619Y-71780952D01*
X106347619Y-71780952D01*
X106347619Y-71447619D01*
X106300000Y-71352380D01*
X106252380Y-71304761D01*
X106157142Y-71257142D01*
X106061904Y-71257142D01*
X105966666Y-71304761D01*
X105919047Y-71352380D01*
X105871428Y-71447619D01*
X105871428Y-71780952D01*
X105728571Y-70780952D02*
X105728571Y-70019047D01*
X120247619Y-122680952D02*
X121247619Y-122680952D01*
X121247619Y-122300000D01*
X121200000Y-122204761D01*
X121152380Y-122157142D01*
X121057142Y-122109523D01*
X120914285Y-122109523D01*
X120819047Y-122157142D01*
X120771428Y-122204761D01*
X120723809Y-122300000D01*
X120723809Y-122680952D01*
X120628571Y-121680952D02*
X120628571Y-120919047D01*
%TO.C,U1*%
X54947619Y-104671428D02*
X54947619Y-104052380D01*
X54566666Y-104385714D01*
X54566666Y-104242857D01*
X54519047Y-104147619D01*
X54471428Y-104100000D01*
X54376190Y-104052380D01*
X54138095Y-104052380D01*
X54042857Y-104100000D01*
X53995238Y-104147619D01*
X53947619Y-104242857D01*
X53947619Y-104528571D01*
X53995238Y-104623809D01*
X54042857Y-104671428D01*
X53995238Y-103671428D02*
X53947619Y-103576190D01*
X53947619Y-103385714D01*
X53995238Y-103290476D01*
X54090476Y-103242857D01*
X54138095Y-103242857D01*
X54233333Y-103290476D01*
X54280952Y-103385714D01*
X54280952Y-103528571D01*
X54328571Y-103623809D01*
X54423809Y-103671428D01*
X54471428Y-103671428D01*
X54566666Y-103623809D01*
X54614285Y-103528571D01*
X54614285Y-103385714D01*
X54566666Y-103290476D01*
X54852380Y-102100000D02*
X54900000Y-102052380D01*
X54947619Y-101957142D01*
X54947619Y-101719047D01*
X54900000Y-101623809D01*
X54852380Y-101576190D01*
X54757142Y-101528571D01*
X54661904Y-101528571D01*
X54519047Y-101576190D01*
X53947619Y-102147619D01*
X53947619Y-101528571D01*
X54947619Y-100623809D02*
X54947619Y-101100000D01*
X54471428Y-101147619D01*
X54519047Y-101100000D01*
X54566666Y-101004761D01*
X54566666Y-100766666D01*
X54519047Y-100671428D01*
X54471428Y-100623809D01*
X54376190Y-100576190D01*
X54138095Y-100576190D01*
X54042857Y-100623809D01*
X53995238Y-100671428D01*
X53947619Y-100766666D01*
X53947619Y-101004761D01*
X53995238Y-101100000D01*
X54042857Y-101147619D01*
X54233333Y-100195238D02*
X54233333Y-99719047D01*
X53947619Y-100290476D02*
X54947619Y-99957142D01*
X53947619Y-99623809D01*
X54471428Y-98195238D02*
X54423809Y-98052380D01*
X54376190Y-98004761D01*
X54280952Y-97957142D01*
X54138095Y-97957142D01*
X54042857Y-98004761D01*
X53995238Y-98052380D01*
X53947619Y-98147619D01*
X53947619Y-98528571D01*
X54947619Y-98528571D01*
X54947619Y-98195238D01*
X54900000Y-98100000D01*
X54852380Y-98052380D01*
X54757142Y-98004761D01*
X54661904Y-98004761D01*
X54566666Y-98052380D01*
X54519047Y-98100000D01*
X54471428Y-98195238D01*
X54471428Y-98528571D01*
X53947619Y-97100000D02*
X54471428Y-97100000D01*
X54566666Y-97147619D01*
X54614285Y-97242857D01*
X54614285Y-97433333D01*
X54566666Y-97528571D01*
X53995238Y-97100000D02*
X53947619Y-97195238D01*
X53947619Y-97433333D01*
X53995238Y-97528571D01*
X54090476Y-97576190D01*
X54185714Y-97576190D01*
X54280952Y-97528571D01*
X54328571Y-97433333D01*
X54328571Y-97195238D01*
X54376190Y-97100000D01*
X54614285Y-96766666D02*
X54614285Y-96385714D01*
X54947619Y-96623809D02*
X54090476Y-96623809D01*
X53995238Y-96576190D01*
X53947619Y-96480952D01*
X53947619Y-96385714D01*
X54614285Y-96195238D02*
X54614285Y-95814285D01*
X54947619Y-96052380D02*
X54090476Y-96052380D01*
X53995238Y-96004761D01*
X53947619Y-95909523D01*
X53947619Y-95814285D01*
X53995238Y-95100000D02*
X53947619Y-95195238D01*
X53947619Y-95385714D01*
X53995238Y-95480952D01*
X54090476Y-95528571D01*
X54471428Y-95528571D01*
X54566666Y-95480952D01*
X54614285Y-95385714D01*
X54614285Y-95195238D01*
X54566666Y-95100000D01*
X54471428Y-95052380D01*
X54376190Y-95052380D01*
X54280952Y-95528571D01*
X53947619Y-94623809D02*
X54614285Y-94623809D01*
X54423809Y-94623809D02*
X54519047Y-94576190D01*
X54566666Y-94528571D01*
X54614285Y-94433333D01*
X54614285Y-94338095D01*
X54614285Y-94100000D02*
X53947619Y-93861904D01*
X54614285Y-93623809D02*
X53947619Y-93861904D01*
X53709523Y-93957142D01*
X53661904Y-94004761D01*
X53614285Y-94100000D01*
X53947619Y-92480952D02*
X54947619Y-92480952D01*
X54233333Y-92147619D01*
X54947619Y-91814285D01*
X53947619Y-91814285D01*
X53947619Y-90909523D02*
X54471428Y-90909523D01*
X54566666Y-90957142D01*
X54614285Y-91052380D01*
X54614285Y-91242857D01*
X54566666Y-91338095D01*
X53995238Y-90909523D02*
X53947619Y-91004761D01*
X53947619Y-91242857D01*
X53995238Y-91338095D01*
X54090476Y-91385714D01*
X54185714Y-91385714D01*
X54280952Y-91338095D01*
X54328571Y-91242857D01*
X54328571Y-91004761D01*
X54376190Y-90909523D01*
X54614285Y-90433333D02*
X53947619Y-90433333D01*
X54519047Y-90433333D02*
X54566666Y-90385714D01*
X54614285Y-90290476D01*
X54614285Y-90147619D01*
X54566666Y-90052380D01*
X54471428Y-90004761D01*
X53947619Y-90004761D01*
X53947619Y-89100000D02*
X54471428Y-89100000D01*
X54566666Y-89147619D01*
X54614285Y-89242857D01*
X54614285Y-89433333D01*
X54566666Y-89528571D01*
X53995238Y-89100000D02*
X53947619Y-89195238D01*
X53947619Y-89433333D01*
X53995238Y-89528571D01*
X54090476Y-89576190D01*
X54185714Y-89576190D01*
X54280952Y-89528571D01*
X54328571Y-89433333D01*
X54328571Y-89195238D01*
X54376190Y-89100000D01*
X54614285Y-88195238D02*
X53804761Y-88195238D01*
X53709523Y-88242857D01*
X53661904Y-88290476D01*
X53614285Y-88385714D01*
X53614285Y-88528571D01*
X53661904Y-88623809D01*
X53995238Y-88195238D02*
X53947619Y-88290476D01*
X53947619Y-88480952D01*
X53995238Y-88576190D01*
X54042857Y-88623809D01*
X54138095Y-88671428D01*
X54423809Y-88671428D01*
X54519047Y-88623809D01*
X54566666Y-88576190D01*
X54614285Y-88480952D01*
X54614285Y-88290476D01*
X54566666Y-88195238D01*
X53995238Y-87338095D02*
X53947619Y-87433333D01*
X53947619Y-87623809D01*
X53995238Y-87719047D01*
X54090476Y-87766666D01*
X54471428Y-87766666D01*
X54566666Y-87719047D01*
X54614285Y-87623809D01*
X54614285Y-87433333D01*
X54566666Y-87338095D01*
X54471428Y-87290476D01*
X54376190Y-87290476D01*
X54280952Y-87766666D01*
X53947619Y-86861904D02*
X54614285Y-86861904D01*
X54519047Y-86861904D02*
X54566666Y-86814285D01*
X54614285Y-86719047D01*
X54614285Y-86576190D01*
X54566666Y-86480952D01*
X54471428Y-86433333D01*
X53947619Y-86433333D01*
X54471428Y-86433333D02*
X54566666Y-86385714D01*
X54614285Y-86290476D01*
X54614285Y-86147619D01*
X54566666Y-86052380D01*
X54471428Y-86004761D01*
X53947619Y-86004761D01*
X53995238Y-85147619D02*
X53947619Y-85242857D01*
X53947619Y-85433333D01*
X53995238Y-85528571D01*
X54090476Y-85576190D01*
X54471428Y-85576190D01*
X54566666Y-85528571D01*
X54614285Y-85433333D01*
X54614285Y-85242857D01*
X54566666Y-85147619D01*
X54471428Y-85100000D01*
X54376190Y-85100000D01*
X54280952Y-85576190D01*
X54614285Y-84671428D02*
X53947619Y-84671428D01*
X54519047Y-84671428D02*
X54566666Y-84623809D01*
X54614285Y-84528571D01*
X54614285Y-84385714D01*
X54566666Y-84290476D01*
X54471428Y-84242857D01*
X53947619Y-84242857D01*
X54614285Y-83909523D02*
X54614285Y-83528571D01*
X54947619Y-83766666D02*
X54090476Y-83766666D01*
X53995238Y-83719047D01*
X53947619Y-83623809D01*
X53947619Y-83528571D01*
X53995238Y-82480952D02*
X53947619Y-82338095D01*
X53947619Y-82100000D01*
X53995238Y-82004761D01*
X54042857Y-81957142D01*
X54138095Y-81909523D01*
X54233333Y-81909523D01*
X54328571Y-81957142D01*
X54376190Y-82004761D01*
X54423809Y-82100000D01*
X54471428Y-82290476D01*
X54519047Y-82385714D01*
X54566666Y-82433333D01*
X54661904Y-82480952D01*
X54757142Y-82480952D01*
X54852380Y-82433333D01*
X54900000Y-82385714D01*
X54947619Y-82290476D01*
X54947619Y-82052380D01*
X54900000Y-81909523D01*
X54614285Y-81576190D02*
X53947619Y-81338095D01*
X54614285Y-81100000D02*
X53947619Y-81338095D01*
X53709523Y-81433333D01*
X53661904Y-81480952D01*
X53614285Y-81576190D01*
X53995238Y-80766666D02*
X53947619Y-80671428D01*
X53947619Y-80480952D01*
X53995238Y-80385714D01*
X54090476Y-80338095D01*
X54138095Y-80338095D01*
X54233333Y-80385714D01*
X54280952Y-80480952D01*
X54280952Y-80623809D01*
X54328571Y-80719047D01*
X54423809Y-80766666D01*
X54471428Y-80766666D01*
X54566666Y-80719047D01*
X54614285Y-80623809D01*
X54614285Y-80480952D01*
X54566666Y-80385714D01*
X54614285Y-80052380D02*
X54614285Y-79671428D01*
X54947619Y-79909523D02*
X54090476Y-79909523D01*
X53995238Y-79861904D01*
X53947619Y-79766666D01*
X53947619Y-79671428D01*
X53995238Y-78957142D02*
X53947619Y-79052380D01*
X53947619Y-79242857D01*
X53995238Y-79338095D01*
X54090476Y-79385714D01*
X54471428Y-79385714D01*
X54566666Y-79338095D01*
X54614285Y-79242857D01*
X54614285Y-79052380D01*
X54566666Y-78957142D01*
X54471428Y-78909523D01*
X54376190Y-78909523D01*
X54280952Y-79385714D01*
X53947619Y-78480952D02*
X54614285Y-78480952D01*
X54519047Y-78480952D02*
X54566666Y-78433333D01*
X54614285Y-78338095D01*
X54614285Y-78195238D01*
X54566666Y-78100000D01*
X54471428Y-78052380D01*
X53947619Y-78052380D01*
X54471428Y-78052380D02*
X54566666Y-78004761D01*
X54614285Y-77909523D01*
X54614285Y-77766666D01*
X54566666Y-77671428D01*
X54471428Y-77623809D01*
X53947619Y-77623809D01*
X94071428Y-112047619D02*
X94023809Y-111904761D01*
X93976190Y-111857142D01*
X93880952Y-111809523D01*
X93738095Y-111809523D01*
X93642857Y-111857142D01*
X93595238Y-111904761D01*
X93547619Y-112000000D01*
X93547619Y-112380952D01*
X94547619Y-112380952D01*
X94547619Y-112047619D01*
X94500000Y-111952380D01*
X94452380Y-111904761D01*
X94357142Y-111857142D01*
X94261904Y-111857142D01*
X94166666Y-111904761D01*
X94119047Y-111952380D01*
X94071428Y-112047619D01*
X94071428Y-112380952D01*
X93928571Y-111380952D02*
X93928571Y-110619047D01*
X93547619Y-111000000D02*
X94309523Y-111000000D01*
X55871428Y-71447619D02*
X55823809Y-71304761D01*
X55776190Y-71257142D01*
X55680952Y-71209523D01*
X55538095Y-71209523D01*
X55442857Y-71257142D01*
X55395238Y-71304761D01*
X55347619Y-71400000D01*
X55347619Y-71780952D01*
X56347619Y-71780952D01*
X56347619Y-71447619D01*
X56300000Y-71352380D01*
X56252380Y-71304761D01*
X56157142Y-71257142D01*
X56061904Y-71257142D01*
X55966666Y-71304761D01*
X55919047Y-71352380D01*
X55871428Y-71447619D01*
X55871428Y-71780952D01*
X55728571Y-70780952D02*
X55728571Y-70019047D01*
X80247619Y-122280952D02*
X81247619Y-122280952D01*
X81247619Y-121900000D01*
X81200000Y-121804761D01*
X81152380Y-121757142D01*
X81057142Y-121709523D01*
X80914285Y-121709523D01*
X80819047Y-121757142D01*
X80771428Y-121804761D01*
X80723809Y-121900000D01*
X80723809Y-122280952D01*
X80628571Y-121280952D02*
X80628571Y-120519047D01*
X80247619Y-120900000D02*
X81009523Y-120900000D01*
X70247619Y-122680952D02*
X71247619Y-122680952D01*
X71247619Y-122300000D01*
X71200000Y-122204761D01*
X71152380Y-122157142D01*
X71057142Y-122109523D01*
X70914285Y-122109523D01*
X70819047Y-122157142D01*
X70771428Y-122204761D01*
X70723809Y-122300000D01*
X70723809Y-122680952D01*
X70628571Y-121680952D02*
X70628571Y-120919047D01*
X93771428Y-71004761D02*
X93723809Y-70861904D01*
X93676190Y-70814285D01*
X93580952Y-70766666D01*
X93438095Y-70766666D01*
X93342857Y-70814285D01*
X93295238Y-70861904D01*
X93247619Y-70957142D01*
X93247619Y-71338095D01*
X94247619Y-71338095D01*
X94247619Y-71004761D01*
X94200000Y-70909523D01*
X94152380Y-70861904D01*
X94057142Y-70814285D01*
X93961904Y-70814285D01*
X93866666Y-70861904D01*
X93819047Y-70909523D01*
X93771428Y-71004761D01*
X93771428Y-71338095D01*
X94152380Y-70385714D02*
X94200000Y-70338095D01*
X94247619Y-70242857D01*
X94247619Y-70004761D01*
X94200000Y-69909523D01*
X94152380Y-69861904D01*
X94057142Y-69814285D01*
X93961904Y-69814285D01*
X93819047Y-69861904D01*
X93247619Y-70433333D01*
X93247619Y-69814285D01*
X55771428Y-112804761D02*
X55723809Y-112661904D01*
X55676190Y-112614285D01*
X55580952Y-112566666D01*
X55438095Y-112566666D01*
X55342857Y-112614285D01*
X55295238Y-112661904D01*
X55247619Y-112757142D01*
X55247619Y-113138095D01*
X56247619Y-113138095D01*
X56247619Y-112804761D01*
X56200000Y-112709523D01*
X56152380Y-112661904D01*
X56057142Y-112614285D01*
X55961904Y-112614285D01*
X55866666Y-112661904D01*
X55819047Y-112709523D01*
X55771428Y-112804761D01*
X55771428Y-113138095D01*
X55247619Y-111614285D02*
X55247619Y-112185714D01*
X55247619Y-111900000D02*
X56247619Y-111900000D01*
X56104761Y-111995238D01*
X56009523Y-112090476D01*
X55961904Y-112185714D01*
D11*
%TO.C,U2*%
X147500000Y-63500000D02*
X102500000Y-63500000D01*
X102500000Y-63500000D02*
X102500000Y-119500000D01*
X102500000Y-119500000D02*
X147500000Y-119500000D01*
X147500000Y-119500000D02*
X147500000Y-63500000D01*
%TO.C,U1*%
X97500000Y-63500000D02*
X52500000Y-63500000D01*
X52500000Y-63500000D02*
X52500000Y-119500000D01*
X52500000Y-119500000D02*
X97500000Y-119500000D01*
X97500000Y-119500000D02*
X97500000Y-63500000D01*
%TD*%
M02*
