M48
; DRILL file {KiCad (6.0.7)} date Thu Oct 27 22:38:08 2022
; FORMAT={-:-/ absolute / inch / decimal}
; #@! TF.CreationDate,2022-10-27T22:38:08-07:00
; #@! TF.GenerationSoftware,Kicad,Pcbnew,(6.0.7)
; #@! TF.FileFunction,Plated,1,4,PTH
FMAT,2
INCH
; #@! TA.AperFunction,Plated,PTH,ComponentDrill
T1C0.0236
; #@! TA.AperFunction,Plated,PTH,ViaDrill
T2C0.0787
; #@! TA.AperFunction,Plated,PTH,ComponentDrill
T3C0.0787
; #@! TA.AperFunction,Plated,PTH,ComponentDrill
T4C0.1575
%
G90
G05
T1
X2.0472Y-2.1654
X2.0472Y-5.7087
X2.0818Y-2.0818
X2.0818Y-2.2489
X2.0818Y-5.6251
X2.0818Y-5.7922
X2.1654Y-2.0472
X2.1654Y-2.2835
X2.1654Y-5.5906
X2.1654Y-5.8268
X2.2489Y-2.0818
X2.2489Y-2.2489
X2.2489Y-5.6251
X2.2489Y-5.7922
X2.2835Y-2.1654
X2.2835Y-5.7087
X3.4252Y-5.7087
X3.4598Y-5.6251
X3.4598Y-5.7922
X3.5433Y-5.5906
X3.5433Y-5.8268
X3.6268Y-5.6251
X3.6268Y-5.7922
X3.6614Y-5.7087
X4.2126Y-5.7087
X4.2472Y-5.6251
X4.2472Y-5.7922
X4.3307Y-5.5906
X4.3307Y-5.8268
X4.4142Y-5.6251
X4.4142Y-5.7922
X4.4488Y-5.7087
X5.5906Y-2.1654
X5.5906Y-5.7087
X5.6251Y-2.0818
X5.6251Y-2.2489
X5.6251Y-5.6251
X5.6251Y-5.7922
X5.7087Y-2.0472
X5.7087Y-2.2835
X5.7087Y-5.5906
X5.7087Y-5.8268
X5.7922Y-2.0818
X5.7922Y-2.2489
X5.7922Y-5.6251
X5.7922Y-5.7922
X5.8268Y-2.1654
X5.8268Y-5.7087
T2
X4.626Y-2.1654
T3
X2.2047Y-2.6378
X2.2047Y-4.5669
X2.7854Y-4.5276
X3.1791Y-4.5276
X3.7008Y-2.6378
X3.7008Y-4.5669
X4.1732Y-2.6378
X4.1732Y-4.5669
X4.7539Y-4.5276
X5.1476Y-4.5276
X5.6693Y-2.6378
X5.6693Y-4.5669
T4
X2.1654Y-2.1654
X2.1654Y-5.7087
X3.5433Y-5.7087
X4.3307Y-5.7087
X5.7087Y-2.1654
X5.7087Y-5.7087
T0
M30
