%TF.GenerationSoftware,KiCad,Pcbnew,(6.0.7)*%
%TF.CreationDate,2022-10-27T22:38:12-07:00*%
%TF.ProjectId,3s25ABMS,33733235-4142-44d5-932e-6b696361645f,1.0*%
%TF.SameCoordinates,Original*%
%TF.FileFunction,Legend,Top*%
%TF.FilePolarity,Positive*%
%FSLAX46Y46*%
G04 Gerber Fmt 4.6, Leading zero omitted, Abs format (unit mm)*
G04 Created by KiCad (PCBNEW (6.0.7)) date 2022-10-27 22:38:12*
%MOMM*%
%LPD*%
G01*
G04 APERTURE LIST*
%ADD10C,0.150000*%
%ADD11C,0.120000*%
%ADD12C,0.050000*%
G04 APERTURE END LIST*
D10*
X118119613Y-148852380D02*
X118244613Y-147852380D01*
X118482708Y-147852380D01*
X118619613Y-147900000D01*
X118702946Y-147995238D01*
X118738660Y-148090476D01*
X118762470Y-148280952D01*
X118744613Y-148423809D01*
X118673184Y-148614285D01*
X118613660Y-148709523D01*
X118506517Y-148804761D01*
X118357708Y-148852380D01*
X118119613Y-148852380D01*
X119262470Y-148852380D02*
X119173184Y-148804761D01*
X119131517Y-148757142D01*
X119095803Y-148661904D01*
X119131517Y-148376190D01*
X119191041Y-148280952D01*
X119244613Y-148233333D01*
X119345803Y-148185714D01*
X119488660Y-148185714D01*
X119577946Y-148233333D01*
X119619613Y-148280952D01*
X119655327Y-148376190D01*
X119619613Y-148661904D01*
X119560089Y-148757142D01*
X119506517Y-148804761D01*
X119405327Y-148852380D01*
X119262470Y-148852380D01*
X120024375Y-148852380D02*
X120107708Y-148185714D01*
X120149375Y-147852380D02*
X120095803Y-147900000D01*
X120137470Y-147947619D01*
X120191041Y-147900000D01*
X120149375Y-147852380D01*
X120137470Y-147947619D01*
X120583898Y-148185714D02*
X120500565Y-148852380D01*
X120571994Y-148280952D02*
X120625565Y-148233333D01*
X120726755Y-148185714D01*
X120869613Y-148185714D01*
X120958898Y-148233333D01*
X120994613Y-148328571D01*
X120929136Y-148852380D01*
X121917232Y-148185714D02*
X121816041Y-148995238D01*
X121756517Y-149090476D01*
X121702946Y-149138095D01*
X121601755Y-149185714D01*
X121458898Y-149185714D01*
X121369613Y-149138095D01*
X121839851Y-148804761D02*
X121738660Y-148852380D01*
X121548184Y-148852380D01*
X121458898Y-148804761D01*
X121417232Y-148757142D01*
X121381517Y-148661904D01*
X121417232Y-148376190D01*
X121476755Y-148280952D01*
X121530327Y-148233333D01*
X121631517Y-148185714D01*
X121821994Y-148185714D01*
X121911279Y-148233333D01*
X122310089Y-148852380D02*
X122435089Y-147852380D01*
X122726755Y-148185714D02*
X123107708Y-148185714D01*
X122911279Y-147852380D02*
X122804136Y-148709523D01*
X122839851Y-148804761D01*
X122929136Y-148852380D01*
X123024375Y-148852380D01*
X123869613Y-148185714D02*
X123786279Y-148852380D01*
X123679136Y-147804761D02*
X123351755Y-148519047D01*
X123970803Y-148519047D01*
X124268422Y-148804761D02*
X124405327Y-148852380D01*
X124643422Y-148852380D01*
X124744613Y-148804761D01*
X124798184Y-148757142D01*
X124857708Y-148661904D01*
X124869613Y-148566666D01*
X124833898Y-148471428D01*
X124792232Y-148423809D01*
X124702946Y-148376190D01*
X124518422Y-148328571D01*
X124429136Y-148280952D01*
X124387470Y-148233333D01*
X124351755Y-148138095D01*
X124363660Y-148042857D01*
X124423184Y-147947619D01*
X124476755Y-147900000D01*
X124577946Y-147852380D01*
X124816041Y-147852380D01*
X124952946Y-147900000D01*
X125696994Y-148804761D02*
X125595803Y-148852380D01*
X125405327Y-148852380D01*
X125316041Y-148804761D01*
X125274375Y-148757142D01*
X125238660Y-148661904D01*
X125274375Y-148376190D01*
X125333898Y-148280952D01*
X125387470Y-148233333D01*
X125488660Y-148185714D01*
X125679136Y-148185714D01*
X125768422Y-148233333D01*
X126119613Y-148852380D02*
X126202946Y-148185714D01*
X126244613Y-147852380D02*
X126191041Y-147900000D01*
X126232708Y-147947619D01*
X126286279Y-147900000D01*
X126244613Y-147852380D01*
X126232708Y-147947619D01*
X126982708Y-148804761D02*
X126881517Y-148852380D01*
X126691041Y-148852380D01*
X126601755Y-148804761D01*
X126566041Y-148709523D01*
X126613660Y-148328571D01*
X126673184Y-148233333D01*
X126774375Y-148185714D01*
X126964851Y-148185714D01*
X127054136Y-148233333D01*
X127089851Y-148328571D01*
X127077946Y-148423809D01*
X126589851Y-148519047D01*
X127536279Y-148185714D02*
X127452946Y-148852380D01*
X127524375Y-148280952D02*
X127577946Y-148233333D01*
X127679136Y-148185714D01*
X127821994Y-148185714D01*
X127911279Y-148233333D01*
X127946994Y-148328571D01*
X127881517Y-148852380D01*
X128792232Y-148804761D02*
X128691041Y-148852380D01*
X128500565Y-148852380D01*
X128411279Y-148804761D01*
X128369613Y-148757142D01*
X128333898Y-148661904D01*
X128369613Y-148376190D01*
X128429136Y-148280952D01*
X128482708Y-148233333D01*
X128583898Y-148185714D01*
X128774375Y-148185714D01*
X128863660Y-148233333D01*
X129601755Y-148804761D02*
X129500565Y-148852380D01*
X129310089Y-148852380D01*
X129220803Y-148804761D01*
X129185089Y-148709523D01*
X129232708Y-148328571D01*
X129292232Y-148233333D01*
X129393422Y-148185714D01*
X129583898Y-148185714D01*
X129673184Y-148233333D01*
X129708898Y-148328571D01*
X129696994Y-148423809D01*
X129208898Y-148519047D01*
X130833898Y-148852380D02*
X130958898Y-147852380D01*
X131393422Y-148185714D02*
X131310089Y-148852380D01*
X131381517Y-148280952D02*
X131435089Y-148233333D01*
X131536279Y-148185714D01*
X131679136Y-148185714D01*
X131768422Y-148233333D01*
X131804136Y-148328571D01*
X131738660Y-148852380D01*
X132643422Y-148852380D02*
X132768422Y-147852380D01*
X132649375Y-148804761D02*
X132548184Y-148852380D01*
X132357708Y-148852380D01*
X132268422Y-148804761D01*
X132226755Y-148757142D01*
X132191041Y-148661904D01*
X132226755Y-148376190D01*
X132286279Y-148280952D01*
X132339851Y-148233333D01*
X132441041Y-148185714D01*
X132631517Y-148185714D01*
X132720803Y-148233333D01*
X133631517Y-148185714D02*
X133548184Y-148852380D01*
X133202946Y-148185714D02*
X133137470Y-148709523D01*
X133173184Y-148804761D01*
X133262470Y-148852380D01*
X133405327Y-148852380D01*
X133506517Y-148804761D01*
X133560089Y-148757142D01*
X133982708Y-148804761D02*
X134071994Y-148852380D01*
X134262470Y-148852380D01*
X134363660Y-148804761D01*
X134423184Y-148709523D01*
X134429136Y-148661904D01*
X134393422Y-148566666D01*
X134304136Y-148519047D01*
X134161279Y-148519047D01*
X134071994Y-148471428D01*
X134036279Y-148376190D01*
X134042232Y-148328571D01*
X134101755Y-148233333D01*
X134202946Y-148185714D01*
X134345803Y-148185714D01*
X134435089Y-148233333D01*
X134774375Y-148185714D02*
X135155327Y-148185714D01*
X134958898Y-147852380D02*
X134851755Y-148709523D01*
X134887470Y-148804761D01*
X134976755Y-148852380D01*
X135071994Y-148852380D01*
X135405327Y-148852380D02*
X135488660Y-148185714D01*
X135464851Y-148376190D02*
X135524375Y-148280952D01*
X135577946Y-148233333D01*
X135679136Y-148185714D01*
X135774375Y-148185714D01*
X136024375Y-148852380D02*
X136107708Y-148185714D01*
X136149375Y-147852380D02*
X136095803Y-147900000D01*
X136137470Y-147947619D01*
X136191041Y-147900000D01*
X136149375Y-147852380D01*
X136137470Y-147947619D01*
X136887470Y-148804761D02*
X136786279Y-148852380D01*
X136595803Y-148852380D01*
X136506517Y-148804761D01*
X136470803Y-148709523D01*
X136518422Y-148328571D01*
X136577946Y-148233333D01*
X136679136Y-148185714D01*
X136869613Y-148185714D01*
X136958898Y-148233333D01*
X136994613Y-148328571D01*
X136982708Y-148423809D01*
X136494613Y-148519047D01*
X137316041Y-148804761D02*
X137405327Y-148852380D01*
X137595803Y-148852380D01*
X137696994Y-148804761D01*
X137756517Y-148709523D01*
X137762470Y-148661904D01*
X137726755Y-148566666D01*
X137637470Y-148519047D01*
X137494613Y-148519047D01*
X137405327Y-148471428D01*
X137369613Y-148376190D01*
X137375565Y-148328571D01*
X137435089Y-148233333D01*
X137536279Y-148185714D01*
X137679136Y-148185714D01*
X137768422Y-148233333D01*
X79428571Y-136404761D02*
X78476190Y-136404761D01*
X78380952Y-137357142D01*
X78476190Y-137261904D01*
X78666666Y-137166666D01*
X79142857Y-137166666D01*
X79333333Y-137261904D01*
X79428571Y-137357142D01*
X79523809Y-137547619D01*
X79523809Y-138023809D01*
X79428571Y-138214285D01*
X79333333Y-138309523D01*
X79142857Y-138404761D01*
X78666666Y-138404761D01*
X78476190Y-138309523D01*
X78380952Y-138214285D01*
X80761904Y-136404761D02*
X80952380Y-136404761D01*
X81142857Y-136500000D01*
X81238095Y-136595238D01*
X81333333Y-136785714D01*
X81428571Y-137166666D01*
X81428571Y-137642857D01*
X81333333Y-138023809D01*
X81238095Y-138214285D01*
X81142857Y-138309523D01*
X80952380Y-138404761D01*
X80761904Y-138404761D01*
X80571428Y-138309523D01*
X80476190Y-138214285D01*
X80380952Y-138023809D01*
X80285714Y-137642857D01*
X80285714Y-137166666D01*
X80380952Y-136785714D01*
X80476190Y-136595238D01*
X80571428Y-136500000D01*
X80761904Y-136404761D01*
X82190476Y-137833333D02*
X83142857Y-137833333D01*
X82000000Y-138404761D02*
X82666666Y-136404761D01*
X83333333Y-138404761D01*
X85333333Y-136404761D02*
X86571428Y-136404761D01*
X85904761Y-137166666D01*
X86190476Y-137166666D01*
X86380952Y-137261904D01*
X86476190Y-137357142D01*
X86571428Y-137547619D01*
X86571428Y-138023809D01*
X86476190Y-138214285D01*
X86380952Y-138309523D01*
X86190476Y-138404761D01*
X85619047Y-138404761D01*
X85428571Y-138309523D01*
X85333333Y-138214285D01*
X87333333Y-138309523D02*
X87523809Y-138404761D01*
X87904761Y-138404761D01*
X88095238Y-138309523D01*
X88190476Y-138119047D01*
X88190476Y-138023809D01*
X88095238Y-137833333D01*
X87904761Y-137738095D01*
X87619047Y-137738095D01*
X87428571Y-137642857D01*
X87333333Y-137452380D01*
X87333333Y-137357142D01*
X87428571Y-137166666D01*
X87619047Y-137071428D01*
X87904761Y-137071428D01*
X88095238Y-137166666D01*
X91238095Y-137357142D02*
X91523809Y-137452380D01*
X91619047Y-137547619D01*
X91714285Y-137738095D01*
X91714285Y-138023809D01*
X91619047Y-138214285D01*
X91523809Y-138309523D01*
X91333333Y-138404761D01*
X90571428Y-138404761D01*
X90571428Y-136404761D01*
X91238095Y-136404761D01*
X91428571Y-136500000D01*
X91523809Y-136595238D01*
X91619047Y-136785714D01*
X91619047Y-136976190D01*
X91523809Y-137166666D01*
X91428571Y-137261904D01*
X91238095Y-137357142D01*
X90571428Y-137357142D01*
X92571428Y-138404761D02*
X92571428Y-136404761D01*
X93238095Y-137833333D01*
X93904761Y-136404761D01*
X93904761Y-138404761D01*
X94761904Y-138309523D02*
X95047619Y-138404761D01*
X95523809Y-138404761D01*
X95714285Y-138309523D01*
X95809523Y-138214285D01*
X95904761Y-138023809D01*
X95904761Y-137833333D01*
X95809523Y-137642857D01*
X95714285Y-137547619D01*
X95523809Y-137452380D01*
X95142857Y-137357142D01*
X94952380Y-137261904D01*
X94857142Y-137166666D01*
X94761904Y-136976190D01*
X94761904Y-136785714D01*
X94857142Y-136595238D01*
X94952380Y-136500000D01*
X95142857Y-136404761D01*
X95619047Y-136404761D01*
X95904761Y-136500000D01*
X98952380Y-137357142D02*
X99238095Y-137452380D01*
X99333333Y-137547619D01*
X99428571Y-137738095D01*
X99428571Y-138023809D01*
X99333333Y-138214285D01*
X99238095Y-138309523D01*
X99047619Y-138404761D01*
X98285714Y-138404761D01*
X98285714Y-136404761D01*
X98952380Y-136404761D01*
X99142857Y-136500000D01*
X99238095Y-136595238D01*
X99333333Y-136785714D01*
X99333333Y-136976190D01*
X99238095Y-137166666D01*
X99142857Y-137261904D01*
X98952380Y-137357142D01*
X98285714Y-137357142D01*
X100571428Y-138404761D02*
X100380952Y-138309523D01*
X100285714Y-138214285D01*
X100190476Y-138023809D01*
X100190476Y-137452380D01*
X100285714Y-137261904D01*
X100380952Y-137166666D01*
X100571428Y-137071428D01*
X100857142Y-137071428D01*
X101047619Y-137166666D01*
X101142857Y-137261904D01*
X101238095Y-137452380D01*
X101238095Y-138023809D01*
X101142857Y-138214285D01*
X101047619Y-138309523D01*
X100857142Y-138404761D01*
X100571428Y-138404761D01*
X102952380Y-138404761D02*
X102952380Y-137357142D01*
X102857142Y-137166666D01*
X102666666Y-137071428D01*
X102285714Y-137071428D01*
X102095238Y-137166666D01*
X102952380Y-138309523D02*
X102761904Y-138404761D01*
X102285714Y-138404761D01*
X102095238Y-138309523D01*
X102000000Y-138119047D01*
X102000000Y-137928571D01*
X102095238Y-137738095D01*
X102285714Y-137642857D01*
X102761904Y-137642857D01*
X102952380Y-137547619D01*
X103904761Y-138404761D02*
X103904761Y-137071428D01*
X103904761Y-137452380D02*
X104000000Y-137261904D01*
X104095238Y-137166666D01*
X104285714Y-137071428D01*
X104476190Y-137071428D01*
X106000000Y-138404761D02*
X106000000Y-136404761D01*
X106000000Y-138309523D02*
X105809523Y-138404761D01*
X105428571Y-138404761D01*
X105238095Y-138309523D01*
X105142857Y-138214285D01*
X105047619Y-138023809D01*
X105047619Y-137452380D01*
X105142857Y-137261904D01*
X105238095Y-137166666D01*
X105428571Y-137071428D01*
X105809523Y-137071428D01*
X106000000Y-137166666D01*
X109619047Y-138404761D02*
X108952380Y-137452380D01*
X108476190Y-138404761D02*
X108476190Y-136404761D01*
X109238095Y-136404761D01*
X109428571Y-136500000D01*
X109523809Y-136595238D01*
X109619047Y-136785714D01*
X109619047Y-137071428D01*
X109523809Y-137261904D01*
X109428571Y-137357142D01*
X109238095Y-137452380D01*
X108476190Y-137452380D01*
X111238095Y-138309523D02*
X111047619Y-138404761D01*
X110666666Y-138404761D01*
X110476190Y-138309523D01*
X110380952Y-138119047D01*
X110380952Y-137357142D01*
X110476190Y-137166666D01*
X110666666Y-137071428D01*
X111047619Y-137071428D01*
X111238095Y-137166666D01*
X111333333Y-137357142D01*
X111333333Y-137547619D01*
X110380952Y-137738095D01*
X112000000Y-137071428D02*
X112476190Y-138404761D01*
X112952380Y-137071428D01*
X113714285Y-138214285D02*
X113809523Y-138309523D01*
X113714285Y-138404761D01*
X113619047Y-138309523D01*
X113714285Y-138214285D01*
X113714285Y-138404761D01*
X116000000Y-137071428D02*
X116476190Y-138404761D01*
X116952380Y-137071428D01*
X118761904Y-138404761D02*
X117619047Y-138404761D01*
X118190476Y-138404761D02*
X118190476Y-136404761D01*
X118000000Y-136690476D01*
X117809523Y-136880952D01*
X117619047Y-136976190D01*
X119619047Y-138214285D02*
X119714285Y-138309523D01*
X119619047Y-138404761D01*
X119523809Y-138309523D01*
X119619047Y-138214285D01*
X119619047Y-138404761D01*
X120952380Y-136404761D02*
X121142857Y-136404761D01*
X121333333Y-136500000D01*
X121428571Y-136595238D01*
X121523809Y-136785714D01*
X121619047Y-137166666D01*
X121619047Y-137642857D01*
X121523809Y-138023809D01*
X121428571Y-138214285D01*
X121333333Y-138309523D01*
X121142857Y-138404761D01*
X120952380Y-138404761D01*
X120761904Y-138309523D01*
X120666666Y-138214285D01*
X120571428Y-138023809D01*
X120476190Y-137642857D01*
X120476190Y-137166666D01*
X120571428Y-136785714D01*
X120666666Y-136595238D01*
X120761904Y-136500000D01*
X120952380Y-136404761D01*
%TO.C,F2*%
X74666666Y-57578571D02*
X74333333Y-57578571D01*
X74333333Y-58102380D02*
X74333333Y-57102380D01*
X74809523Y-57102380D01*
X75142857Y-57197619D02*
X75190476Y-57150000D01*
X75285714Y-57102380D01*
X75523809Y-57102380D01*
X75619047Y-57150000D01*
X75666666Y-57197619D01*
X75714285Y-57292857D01*
X75714285Y-57388095D01*
X75666666Y-57530952D01*
X75095238Y-58102380D01*
X75714285Y-58102380D01*
%TO.C,U2*%
X148547619Y-62738095D02*
X147738095Y-62738095D01*
X147642857Y-62785714D01*
X147595238Y-62833333D01*
X147547619Y-62928571D01*
X147547619Y-63119047D01*
X147595238Y-63214285D01*
X147642857Y-63261904D01*
X147738095Y-63309523D01*
X148547619Y-63309523D01*
X148452380Y-63738095D02*
X148500000Y-63785714D01*
X148547619Y-63880952D01*
X148547619Y-64119047D01*
X148500000Y-64214285D01*
X148452380Y-64261904D01*
X148357142Y-64309523D01*
X148261904Y-64309523D01*
X148119047Y-64261904D01*
X147547619Y-63690476D01*
X147547619Y-64309523D01*
X130247619Y-120919047D02*
X131247619Y-120919047D01*
X131247619Y-121300000D01*
X131200000Y-121395238D01*
X131152380Y-121442857D01*
X131057142Y-121490476D01*
X130914285Y-121490476D01*
X130819047Y-121442857D01*
X130771428Y-121395238D01*
X130723809Y-121300000D01*
X130723809Y-120919047D01*
X130628571Y-121919047D02*
X130628571Y-122680952D01*
X130247619Y-122300000D02*
X131009523Y-122300000D01*
X144071428Y-111152380D02*
X144023809Y-111295238D01*
X143976190Y-111342857D01*
X143880952Y-111390476D01*
X143738095Y-111390476D01*
X143642857Y-111342857D01*
X143595238Y-111295238D01*
X143547619Y-111200000D01*
X143547619Y-110819047D01*
X144547619Y-110819047D01*
X144547619Y-111152380D01*
X144500000Y-111247619D01*
X144452380Y-111295238D01*
X144357142Y-111342857D01*
X144261904Y-111342857D01*
X144166666Y-111295238D01*
X144119047Y-111247619D01*
X144071428Y-111152380D01*
X144071428Y-110819047D01*
X143928571Y-111819047D02*
X143928571Y-112580952D01*
X143547619Y-112200000D02*
X144309523Y-112200000D01*
X120247619Y-120819047D02*
X121247619Y-120819047D01*
X121247619Y-121200000D01*
X121200000Y-121295238D01*
X121152380Y-121342857D01*
X121057142Y-121390476D01*
X120914285Y-121390476D01*
X120819047Y-121342857D01*
X120771428Y-121295238D01*
X120723809Y-121200000D01*
X120723809Y-120819047D01*
X120628571Y-121819047D02*
X120628571Y-122580952D01*
X143671428Y-70095238D02*
X143623809Y-70238095D01*
X143576190Y-70285714D01*
X143480952Y-70333333D01*
X143338095Y-70333333D01*
X143242857Y-70285714D01*
X143195238Y-70238095D01*
X143147619Y-70142857D01*
X143147619Y-69761904D01*
X144147619Y-69761904D01*
X144147619Y-70095238D01*
X144100000Y-70190476D01*
X144052380Y-70238095D01*
X143957142Y-70285714D01*
X143861904Y-70285714D01*
X143766666Y-70238095D01*
X143719047Y-70190476D01*
X143671428Y-70095238D01*
X143671428Y-69761904D01*
X144052380Y-70714285D02*
X144100000Y-70761904D01*
X144147619Y-70857142D01*
X144147619Y-71095238D01*
X144100000Y-71190476D01*
X144052380Y-71238095D01*
X143957142Y-71285714D01*
X143861904Y-71285714D01*
X143719047Y-71238095D01*
X143147619Y-70666666D01*
X143147619Y-71285714D01*
X104947619Y-77628571D02*
X104947619Y-78247619D01*
X104566666Y-77914285D01*
X104566666Y-78057142D01*
X104519047Y-78152380D01*
X104471428Y-78200000D01*
X104376190Y-78247619D01*
X104138095Y-78247619D01*
X104042857Y-78200000D01*
X103995238Y-78152380D01*
X103947619Y-78057142D01*
X103947619Y-77771428D01*
X103995238Y-77676190D01*
X104042857Y-77628571D01*
X103995238Y-78628571D02*
X103947619Y-78723809D01*
X103947619Y-78914285D01*
X103995238Y-79009523D01*
X104090476Y-79057142D01*
X104138095Y-79057142D01*
X104233333Y-79009523D01*
X104280952Y-78914285D01*
X104280952Y-78771428D01*
X104328571Y-78676190D01*
X104423809Y-78628571D01*
X104471428Y-78628571D01*
X104566666Y-78676190D01*
X104614285Y-78771428D01*
X104614285Y-78914285D01*
X104566666Y-79009523D01*
X104852380Y-80200000D02*
X104900000Y-80247619D01*
X104947619Y-80342857D01*
X104947619Y-80580952D01*
X104900000Y-80676190D01*
X104852380Y-80723809D01*
X104757142Y-80771428D01*
X104661904Y-80771428D01*
X104519047Y-80723809D01*
X103947619Y-80152380D01*
X103947619Y-80771428D01*
X104947619Y-81676190D02*
X104947619Y-81200000D01*
X104471428Y-81152380D01*
X104519047Y-81200000D01*
X104566666Y-81295238D01*
X104566666Y-81533333D01*
X104519047Y-81628571D01*
X104471428Y-81676190D01*
X104376190Y-81723809D01*
X104138095Y-81723809D01*
X104042857Y-81676190D01*
X103995238Y-81628571D01*
X103947619Y-81533333D01*
X103947619Y-81295238D01*
X103995238Y-81200000D01*
X104042857Y-81152380D01*
X104233333Y-82104761D02*
X104233333Y-82580952D01*
X103947619Y-82009523D02*
X104947619Y-82342857D01*
X103947619Y-82676190D01*
X104471428Y-84104761D02*
X104423809Y-84247619D01*
X104376190Y-84295238D01*
X104280952Y-84342857D01*
X104138095Y-84342857D01*
X104042857Y-84295238D01*
X103995238Y-84247619D01*
X103947619Y-84152380D01*
X103947619Y-83771428D01*
X104947619Y-83771428D01*
X104947619Y-84104761D01*
X104900000Y-84200000D01*
X104852380Y-84247619D01*
X104757142Y-84295238D01*
X104661904Y-84295238D01*
X104566666Y-84247619D01*
X104519047Y-84200000D01*
X104471428Y-84104761D01*
X104471428Y-83771428D01*
X103947619Y-85200000D02*
X104471428Y-85200000D01*
X104566666Y-85152380D01*
X104614285Y-85057142D01*
X104614285Y-84866666D01*
X104566666Y-84771428D01*
X103995238Y-85200000D02*
X103947619Y-85104761D01*
X103947619Y-84866666D01*
X103995238Y-84771428D01*
X104090476Y-84723809D01*
X104185714Y-84723809D01*
X104280952Y-84771428D01*
X104328571Y-84866666D01*
X104328571Y-85104761D01*
X104376190Y-85200000D01*
X104614285Y-85533333D02*
X104614285Y-85914285D01*
X104947619Y-85676190D02*
X104090476Y-85676190D01*
X103995238Y-85723809D01*
X103947619Y-85819047D01*
X103947619Y-85914285D01*
X104614285Y-86104761D02*
X104614285Y-86485714D01*
X104947619Y-86247619D02*
X104090476Y-86247619D01*
X103995238Y-86295238D01*
X103947619Y-86390476D01*
X103947619Y-86485714D01*
X103995238Y-87200000D02*
X103947619Y-87104761D01*
X103947619Y-86914285D01*
X103995238Y-86819047D01*
X104090476Y-86771428D01*
X104471428Y-86771428D01*
X104566666Y-86819047D01*
X104614285Y-86914285D01*
X104614285Y-87104761D01*
X104566666Y-87200000D01*
X104471428Y-87247619D01*
X104376190Y-87247619D01*
X104280952Y-86771428D01*
X103947619Y-87676190D02*
X104614285Y-87676190D01*
X104423809Y-87676190D02*
X104519047Y-87723809D01*
X104566666Y-87771428D01*
X104614285Y-87866666D01*
X104614285Y-87961904D01*
X104614285Y-88200000D02*
X103947619Y-88438095D01*
X104614285Y-88676190D02*
X103947619Y-88438095D01*
X103709523Y-88342857D01*
X103661904Y-88295238D01*
X103614285Y-88200000D01*
X103947619Y-89819047D02*
X104947619Y-89819047D01*
X104233333Y-90152380D01*
X104947619Y-90485714D01*
X103947619Y-90485714D01*
X103947619Y-91390476D02*
X104471428Y-91390476D01*
X104566666Y-91342857D01*
X104614285Y-91247619D01*
X104614285Y-91057142D01*
X104566666Y-90961904D01*
X103995238Y-91390476D02*
X103947619Y-91295238D01*
X103947619Y-91057142D01*
X103995238Y-90961904D01*
X104090476Y-90914285D01*
X104185714Y-90914285D01*
X104280952Y-90961904D01*
X104328571Y-91057142D01*
X104328571Y-91295238D01*
X104376190Y-91390476D01*
X104614285Y-91866666D02*
X103947619Y-91866666D01*
X104519047Y-91866666D02*
X104566666Y-91914285D01*
X104614285Y-92009523D01*
X104614285Y-92152380D01*
X104566666Y-92247619D01*
X104471428Y-92295238D01*
X103947619Y-92295238D01*
X103947619Y-93200000D02*
X104471428Y-93200000D01*
X104566666Y-93152380D01*
X104614285Y-93057142D01*
X104614285Y-92866666D01*
X104566666Y-92771428D01*
X103995238Y-93200000D02*
X103947619Y-93104761D01*
X103947619Y-92866666D01*
X103995238Y-92771428D01*
X104090476Y-92723809D01*
X104185714Y-92723809D01*
X104280952Y-92771428D01*
X104328571Y-92866666D01*
X104328571Y-93104761D01*
X104376190Y-93200000D01*
X104614285Y-94104761D02*
X103804761Y-94104761D01*
X103709523Y-94057142D01*
X103661904Y-94009523D01*
X103614285Y-93914285D01*
X103614285Y-93771428D01*
X103661904Y-93676190D01*
X103995238Y-94104761D02*
X103947619Y-94009523D01*
X103947619Y-93819047D01*
X103995238Y-93723809D01*
X104042857Y-93676190D01*
X104138095Y-93628571D01*
X104423809Y-93628571D01*
X104519047Y-93676190D01*
X104566666Y-93723809D01*
X104614285Y-93819047D01*
X104614285Y-94009523D01*
X104566666Y-94104761D01*
X103995238Y-94961904D02*
X103947619Y-94866666D01*
X103947619Y-94676190D01*
X103995238Y-94580952D01*
X104090476Y-94533333D01*
X104471428Y-94533333D01*
X104566666Y-94580952D01*
X104614285Y-94676190D01*
X104614285Y-94866666D01*
X104566666Y-94961904D01*
X104471428Y-95009523D01*
X104376190Y-95009523D01*
X104280952Y-94533333D01*
X103947619Y-95438095D02*
X104614285Y-95438095D01*
X104519047Y-95438095D02*
X104566666Y-95485714D01*
X104614285Y-95580952D01*
X104614285Y-95723809D01*
X104566666Y-95819047D01*
X104471428Y-95866666D01*
X103947619Y-95866666D01*
X104471428Y-95866666D02*
X104566666Y-95914285D01*
X104614285Y-96009523D01*
X104614285Y-96152380D01*
X104566666Y-96247619D01*
X104471428Y-96295238D01*
X103947619Y-96295238D01*
X103995238Y-97152380D02*
X103947619Y-97057142D01*
X103947619Y-96866666D01*
X103995238Y-96771428D01*
X104090476Y-96723809D01*
X104471428Y-96723809D01*
X104566666Y-96771428D01*
X104614285Y-96866666D01*
X104614285Y-97057142D01*
X104566666Y-97152380D01*
X104471428Y-97200000D01*
X104376190Y-97200000D01*
X104280952Y-96723809D01*
X104614285Y-97628571D02*
X103947619Y-97628571D01*
X104519047Y-97628571D02*
X104566666Y-97676190D01*
X104614285Y-97771428D01*
X104614285Y-97914285D01*
X104566666Y-98009523D01*
X104471428Y-98057142D01*
X103947619Y-98057142D01*
X104614285Y-98390476D02*
X104614285Y-98771428D01*
X104947619Y-98533333D02*
X104090476Y-98533333D01*
X103995238Y-98580952D01*
X103947619Y-98676190D01*
X103947619Y-98771428D01*
X103995238Y-99819047D02*
X103947619Y-99961904D01*
X103947619Y-100200000D01*
X103995238Y-100295238D01*
X104042857Y-100342857D01*
X104138095Y-100390476D01*
X104233333Y-100390476D01*
X104328571Y-100342857D01*
X104376190Y-100295238D01*
X104423809Y-100200000D01*
X104471428Y-100009523D01*
X104519047Y-99914285D01*
X104566666Y-99866666D01*
X104661904Y-99819047D01*
X104757142Y-99819047D01*
X104852380Y-99866666D01*
X104900000Y-99914285D01*
X104947619Y-100009523D01*
X104947619Y-100247619D01*
X104900000Y-100390476D01*
X104614285Y-100723809D02*
X103947619Y-100961904D01*
X104614285Y-101200000D02*
X103947619Y-100961904D01*
X103709523Y-100866666D01*
X103661904Y-100819047D01*
X103614285Y-100723809D01*
X103995238Y-101533333D02*
X103947619Y-101628571D01*
X103947619Y-101819047D01*
X103995238Y-101914285D01*
X104090476Y-101961904D01*
X104138095Y-101961904D01*
X104233333Y-101914285D01*
X104280952Y-101819047D01*
X104280952Y-101676190D01*
X104328571Y-101580952D01*
X104423809Y-101533333D01*
X104471428Y-101533333D01*
X104566666Y-101580952D01*
X104614285Y-101676190D01*
X104614285Y-101819047D01*
X104566666Y-101914285D01*
X104614285Y-102247619D02*
X104614285Y-102628571D01*
X104947619Y-102390476D02*
X104090476Y-102390476D01*
X103995238Y-102438095D01*
X103947619Y-102533333D01*
X103947619Y-102628571D01*
X103995238Y-103342857D02*
X103947619Y-103247619D01*
X103947619Y-103057142D01*
X103995238Y-102961904D01*
X104090476Y-102914285D01*
X104471428Y-102914285D01*
X104566666Y-102961904D01*
X104614285Y-103057142D01*
X104614285Y-103247619D01*
X104566666Y-103342857D01*
X104471428Y-103390476D01*
X104376190Y-103390476D01*
X104280952Y-102914285D01*
X103947619Y-103819047D02*
X104614285Y-103819047D01*
X104519047Y-103819047D02*
X104566666Y-103866666D01*
X104614285Y-103961904D01*
X104614285Y-104104761D01*
X104566666Y-104200000D01*
X104471428Y-104247619D01*
X103947619Y-104247619D01*
X104471428Y-104247619D02*
X104566666Y-104295238D01*
X104614285Y-104390476D01*
X104614285Y-104533333D01*
X104566666Y-104628571D01*
X104471428Y-104676190D01*
X103947619Y-104676190D01*
X105771428Y-112095238D02*
X105723809Y-112238095D01*
X105676190Y-112285714D01*
X105580952Y-112333333D01*
X105438095Y-112333333D01*
X105342857Y-112285714D01*
X105295238Y-112238095D01*
X105247619Y-112142857D01*
X105247619Y-111761904D01*
X106247619Y-111761904D01*
X106247619Y-112095238D01*
X106200000Y-112190476D01*
X106152380Y-112238095D01*
X106057142Y-112285714D01*
X105961904Y-112285714D01*
X105866666Y-112238095D01*
X105819047Y-112190476D01*
X105771428Y-112095238D01*
X105771428Y-111761904D01*
X105247619Y-113285714D02*
X105247619Y-112714285D01*
X105247619Y-113000000D02*
X106247619Y-113000000D01*
X106104761Y-112904761D01*
X106009523Y-112809523D01*
X105961904Y-112714285D01*
X105971428Y-70252380D02*
X105923809Y-70395238D01*
X105876190Y-70442857D01*
X105780952Y-70490476D01*
X105638095Y-70490476D01*
X105542857Y-70442857D01*
X105495238Y-70395238D01*
X105447619Y-70300000D01*
X105447619Y-69919047D01*
X106447619Y-69919047D01*
X106447619Y-70252380D01*
X106400000Y-70347619D01*
X106352380Y-70395238D01*
X106257142Y-70442857D01*
X106161904Y-70442857D01*
X106066666Y-70395238D01*
X106019047Y-70347619D01*
X105971428Y-70252380D01*
X105971428Y-69919047D01*
X105828571Y-70919047D02*
X105828571Y-71680952D01*
%TO.C,H1*%
X54238095Y-140452380D02*
X54238095Y-139452380D01*
X54238095Y-139928571D02*
X54809523Y-139928571D01*
X54809523Y-140452380D02*
X54809523Y-139452380D01*
X55809523Y-140452380D02*
X55238095Y-140452380D01*
X55523809Y-140452380D02*
X55523809Y-139452380D01*
X55428571Y-139595238D01*
X55333333Y-139690476D01*
X55238095Y-139738095D01*
%TO.C,H2*%
X54238095Y-60452380D02*
X54238095Y-59452380D01*
X54238095Y-59928571D02*
X54809523Y-59928571D01*
X54809523Y-60452380D02*
X54809523Y-59452380D01*
X55238095Y-59547619D02*
X55285714Y-59500000D01*
X55380952Y-59452380D01*
X55619047Y-59452380D01*
X55714285Y-59500000D01*
X55761904Y-59547619D01*
X55809523Y-59642857D01*
X55809523Y-59738095D01*
X55761904Y-59880952D01*
X55190476Y-60452380D01*
X55809523Y-60452380D01*
%TO.C,F1*%
X124666666Y-52278571D02*
X124333333Y-52278571D01*
X124333333Y-52802380D02*
X124333333Y-51802380D01*
X124809523Y-51802380D01*
X125714285Y-52802380D02*
X125142857Y-52802380D01*
X125428571Y-52802380D02*
X125428571Y-51802380D01*
X125333333Y-51945238D01*
X125238095Y-52040476D01*
X125142857Y-52088095D01*
%TO.C,H5*%
X109238095Y-140452380D02*
X109238095Y-139452380D01*
X109238095Y-139928571D02*
X109809523Y-139928571D01*
X109809523Y-140452380D02*
X109809523Y-139452380D01*
X110761904Y-139452380D02*
X110285714Y-139452380D01*
X110238095Y-139928571D01*
X110285714Y-139880952D01*
X110380952Y-139833333D01*
X110619047Y-139833333D01*
X110714285Y-139880952D01*
X110761904Y-139928571D01*
X110809523Y-140023809D01*
X110809523Y-140261904D01*
X110761904Y-140357142D01*
X110714285Y-140404761D01*
X110619047Y-140452380D01*
X110380952Y-140452380D01*
X110285714Y-140404761D01*
X110238095Y-140357142D01*
%TO.C,F4*%
X124353333Y-133571428D02*
X124686666Y-133571428D01*
X124686666Y-133047619D02*
X124686666Y-134047619D01*
X124210476Y-134047619D01*
X123400952Y-133714285D02*
X123400952Y-133047619D01*
X123639047Y-134095238D02*
X123877142Y-133380952D01*
X123258095Y-133380952D01*
%TO.C,H6*%
X89238095Y-140452380D02*
X89238095Y-139452380D01*
X89238095Y-139928571D02*
X89809523Y-139928571D01*
X89809523Y-140452380D02*
X89809523Y-139452380D01*
X90714285Y-139452380D02*
X90523809Y-139452380D01*
X90428571Y-139500000D01*
X90380952Y-139547619D01*
X90285714Y-139690476D01*
X90238095Y-139880952D01*
X90238095Y-140261904D01*
X90285714Y-140357142D01*
X90333333Y-140404761D01*
X90428571Y-140452380D01*
X90619047Y-140452380D01*
X90714285Y-140404761D01*
X90761904Y-140357142D01*
X90809523Y-140261904D01*
X90809523Y-140023809D01*
X90761904Y-139928571D01*
X90714285Y-139880952D01*
X90619047Y-139833333D01*
X90428571Y-139833333D01*
X90333333Y-139880952D01*
X90285714Y-139928571D01*
X90238095Y-140023809D01*
%TO.C,H4*%
X144238095Y-140452380D02*
X144238095Y-139452380D01*
X144238095Y-139928571D02*
X144809523Y-139928571D01*
X144809523Y-140452380D02*
X144809523Y-139452380D01*
X145714285Y-139785714D02*
X145714285Y-140452380D01*
X145476190Y-139404761D02*
X145238095Y-140119047D01*
X145857142Y-140119047D01*
%TO.C,H3*%
X144238095Y-60452380D02*
X144238095Y-59452380D01*
X144238095Y-59928571D02*
X144809523Y-59928571D01*
X144809523Y-60452380D02*
X144809523Y-59452380D01*
X145190476Y-59452380D02*
X145809523Y-59452380D01*
X145476190Y-59833333D01*
X145619047Y-59833333D01*
X145714285Y-59880952D01*
X145761904Y-59928571D01*
X145809523Y-60023809D01*
X145809523Y-60261904D01*
X145761904Y-60357142D01*
X145714285Y-60404761D01*
X145619047Y-60452380D01*
X145333333Y-60452380D01*
X145238095Y-60404761D01*
X145190476Y-60357142D01*
%TO.C,U1*%
X98547619Y-62738095D02*
X97738095Y-62738095D01*
X97642857Y-62785714D01*
X97595238Y-62833333D01*
X97547619Y-62928571D01*
X97547619Y-63119047D01*
X97595238Y-63214285D01*
X97642857Y-63261904D01*
X97738095Y-63309523D01*
X98547619Y-63309523D01*
X97547619Y-64309523D02*
X97547619Y-63738095D01*
X97547619Y-64023809D02*
X98547619Y-64023809D01*
X98404761Y-63928571D01*
X98309523Y-63833333D01*
X98261904Y-63738095D01*
X80247619Y-120919047D02*
X81247619Y-120919047D01*
X81247619Y-121300000D01*
X81200000Y-121395238D01*
X81152380Y-121442857D01*
X81057142Y-121490476D01*
X80914285Y-121490476D01*
X80819047Y-121442857D01*
X80771428Y-121395238D01*
X80723809Y-121300000D01*
X80723809Y-120919047D01*
X80628571Y-121919047D02*
X80628571Y-122680952D01*
X80247619Y-122300000D02*
X81009523Y-122300000D01*
X70247619Y-120819047D02*
X71247619Y-120819047D01*
X71247619Y-121200000D01*
X71200000Y-121295238D01*
X71152380Y-121342857D01*
X71057142Y-121390476D01*
X70914285Y-121390476D01*
X70819047Y-121342857D01*
X70771428Y-121295238D01*
X70723809Y-121200000D01*
X70723809Y-120819047D01*
X70628571Y-121819047D02*
X70628571Y-122580952D01*
X55971428Y-70252380D02*
X55923809Y-70395238D01*
X55876190Y-70442857D01*
X55780952Y-70490476D01*
X55638095Y-70490476D01*
X55542857Y-70442857D01*
X55495238Y-70395238D01*
X55447619Y-70300000D01*
X55447619Y-69919047D01*
X56447619Y-69919047D01*
X56447619Y-70252380D01*
X56400000Y-70347619D01*
X56352380Y-70395238D01*
X56257142Y-70442857D01*
X56161904Y-70442857D01*
X56066666Y-70395238D01*
X56019047Y-70347619D01*
X55971428Y-70252380D01*
X55971428Y-69919047D01*
X55828571Y-70919047D02*
X55828571Y-71680952D01*
X55771428Y-112095238D02*
X55723809Y-112238095D01*
X55676190Y-112285714D01*
X55580952Y-112333333D01*
X55438095Y-112333333D01*
X55342857Y-112285714D01*
X55295238Y-112238095D01*
X55247619Y-112142857D01*
X55247619Y-111761904D01*
X56247619Y-111761904D01*
X56247619Y-112095238D01*
X56200000Y-112190476D01*
X56152380Y-112238095D01*
X56057142Y-112285714D01*
X55961904Y-112285714D01*
X55866666Y-112238095D01*
X55819047Y-112190476D01*
X55771428Y-112095238D01*
X55771428Y-111761904D01*
X55247619Y-113285714D02*
X55247619Y-112714285D01*
X55247619Y-113000000D02*
X56247619Y-113000000D01*
X56104761Y-112904761D01*
X56009523Y-112809523D01*
X55961904Y-112714285D01*
X94071428Y-111152380D02*
X94023809Y-111295238D01*
X93976190Y-111342857D01*
X93880952Y-111390476D01*
X93738095Y-111390476D01*
X93642857Y-111342857D01*
X93595238Y-111295238D01*
X93547619Y-111200000D01*
X93547619Y-110819047D01*
X94547619Y-110819047D01*
X94547619Y-111152380D01*
X94500000Y-111247619D01*
X94452380Y-111295238D01*
X94357142Y-111342857D01*
X94261904Y-111342857D01*
X94166666Y-111295238D01*
X94119047Y-111247619D01*
X94071428Y-111152380D01*
X94071428Y-110819047D01*
X93928571Y-111819047D02*
X93928571Y-112580952D01*
X93547619Y-112200000D02*
X94309523Y-112200000D01*
X93671428Y-70095238D02*
X93623809Y-70238095D01*
X93576190Y-70285714D01*
X93480952Y-70333333D01*
X93338095Y-70333333D01*
X93242857Y-70285714D01*
X93195238Y-70238095D01*
X93147619Y-70142857D01*
X93147619Y-69761904D01*
X94147619Y-69761904D01*
X94147619Y-70095238D01*
X94100000Y-70190476D01*
X94052380Y-70238095D01*
X93957142Y-70285714D01*
X93861904Y-70285714D01*
X93766666Y-70238095D01*
X93719047Y-70190476D01*
X93671428Y-70095238D01*
X93671428Y-69761904D01*
X94052380Y-70714285D02*
X94100000Y-70761904D01*
X94147619Y-70857142D01*
X94147619Y-71095238D01*
X94100000Y-71190476D01*
X94052380Y-71238095D01*
X93957142Y-71285714D01*
X93861904Y-71285714D01*
X93719047Y-71238095D01*
X93147619Y-70666666D01*
X93147619Y-71285714D01*
X54947619Y-77628571D02*
X54947619Y-78247619D01*
X54566666Y-77914285D01*
X54566666Y-78057142D01*
X54519047Y-78152380D01*
X54471428Y-78200000D01*
X54376190Y-78247619D01*
X54138095Y-78247619D01*
X54042857Y-78200000D01*
X53995238Y-78152380D01*
X53947619Y-78057142D01*
X53947619Y-77771428D01*
X53995238Y-77676190D01*
X54042857Y-77628571D01*
X53995238Y-78628571D02*
X53947619Y-78723809D01*
X53947619Y-78914285D01*
X53995238Y-79009523D01*
X54090476Y-79057142D01*
X54138095Y-79057142D01*
X54233333Y-79009523D01*
X54280952Y-78914285D01*
X54280952Y-78771428D01*
X54328571Y-78676190D01*
X54423809Y-78628571D01*
X54471428Y-78628571D01*
X54566666Y-78676190D01*
X54614285Y-78771428D01*
X54614285Y-78914285D01*
X54566666Y-79009523D01*
X54852380Y-80200000D02*
X54900000Y-80247619D01*
X54947619Y-80342857D01*
X54947619Y-80580952D01*
X54900000Y-80676190D01*
X54852380Y-80723809D01*
X54757142Y-80771428D01*
X54661904Y-80771428D01*
X54519047Y-80723809D01*
X53947619Y-80152380D01*
X53947619Y-80771428D01*
X54947619Y-81676190D02*
X54947619Y-81200000D01*
X54471428Y-81152380D01*
X54519047Y-81200000D01*
X54566666Y-81295238D01*
X54566666Y-81533333D01*
X54519047Y-81628571D01*
X54471428Y-81676190D01*
X54376190Y-81723809D01*
X54138095Y-81723809D01*
X54042857Y-81676190D01*
X53995238Y-81628571D01*
X53947619Y-81533333D01*
X53947619Y-81295238D01*
X53995238Y-81200000D01*
X54042857Y-81152380D01*
X54233333Y-82104761D02*
X54233333Y-82580952D01*
X53947619Y-82009523D02*
X54947619Y-82342857D01*
X53947619Y-82676190D01*
X54471428Y-84104761D02*
X54423809Y-84247619D01*
X54376190Y-84295238D01*
X54280952Y-84342857D01*
X54138095Y-84342857D01*
X54042857Y-84295238D01*
X53995238Y-84247619D01*
X53947619Y-84152380D01*
X53947619Y-83771428D01*
X54947619Y-83771428D01*
X54947619Y-84104761D01*
X54900000Y-84200000D01*
X54852380Y-84247619D01*
X54757142Y-84295238D01*
X54661904Y-84295238D01*
X54566666Y-84247619D01*
X54519047Y-84200000D01*
X54471428Y-84104761D01*
X54471428Y-83771428D01*
X53947619Y-85200000D02*
X54471428Y-85200000D01*
X54566666Y-85152380D01*
X54614285Y-85057142D01*
X54614285Y-84866666D01*
X54566666Y-84771428D01*
X53995238Y-85200000D02*
X53947619Y-85104761D01*
X53947619Y-84866666D01*
X53995238Y-84771428D01*
X54090476Y-84723809D01*
X54185714Y-84723809D01*
X54280952Y-84771428D01*
X54328571Y-84866666D01*
X54328571Y-85104761D01*
X54376190Y-85200000D01*
X54614285Y-85533333D02*
X54614285Y-85914285D01*
X54947619Y-85676190D02*
X54090476Y-85676190D01*
X53995238Y-85723809D01*
X53947619Y-85819047D01*
X53947619Y-85914285D01*
X54614285Y-86104761D02*
X54614285Y-86485714D01*
X54947619Y-86247619D02*
X54090476Y-86247619D01*
X53995238Y-86295238D01*
X53947619Y-86390476D01*
X53947619Y-86485714D01*
X53995238Y-87200000D02*
X53947619Y-87104761D01*
X53947619Y-86914285D01*
X53995238Y-86819047D01*
X54090476Y-86771428D01*
X54471428Y-86771428D01*
X54566666Y-86819047D01*
X54614285Y-86914285D01*
X54614285Y-87104761D01*
X54566666Y-87200000D01*
X54471428Y-87247619D01*
X54376190Y-87247619D01*
X54280952Y-86771428D01*
X53947619Y-87676190D02*
X54614285Y-87676190D01*
X54423809Y-87676190D02*
X54519047Y-87723809D01*
X54566666Y-87771428D01*
X54614285Y-87866666D01*
X54614285Y-87961904D01*
X54614285Y-88200000D02*
X53947619Y-88438095D01*
X54614285Y-88676190D02*
X53947619Y-88438095D01*
X53709523Y-88342857D01*
X53661904Y-88295238D01*
X53614285Y-88200000D01*
X53947619Y-89819047D02*
X54947619Y-89819047D01*
X54233333Y-90152380D01*
X54947619Y-90485714D01*
X53947619Y-90485714D01*
X53947619Y-91390476D02*
X54471428Y-91390476D01*
X54566666Y-91342857D01*
X54614285Y-91247619D01*
X54614285Y-91057142D01*
X54566666Y-90961904D01*
X53995238Y-91390476D02*
X53947619Y-91295238D01*
X53947619Y-91057142D01*
X53995238Y-90961904D01*
X54090476Y-90914285D01*
X54185714Y-90914285D01*
X54280952Y-90961904D01*
X54328571Y-91057142D01*
X54328571Y-91295238D01*
X54376190Y-91390476D01*
X54614285Y-91866666D02*
X53947619Y-91866666D01*
X54519047Y-91866666D02*
X54566666Y-91914285D01*
X54614285Y-92009523D01*
X54614285Y-92152380D01*
X54566666Y-92247619D01*
X54471428Y-92295238D01*
X53947619Y-92295238D01*
X53947619Y-93200000D02*
X54471428Y-93200000D01*
X54566666Y-93152380D01*
X54614285Y-93057142D01*
X54614285Y-92866666D01*
X54566666Y-92771428D01*
X53995238Y-93200000D02*
X53947619Y-93104761D01*
X53947619Y-92866666D01*
X53995238Y-92771428D01*
X54090476Y-92723809D01*
X54185714Y-92723809D01*
X54280952Y-92771428D01*
X54328571Y-92866666D01*
X54328571Y-93104761D01*
X54376190Y-93200000D01*
X54614285Y-94104761D02*
X53804761Y-94104761D01*
X53709523Y-94057142D01*
X53661904Y-94009523D01*
X53614285Y-93914285D01*
X53614285Y-93771428D01*
X53661904Y-93676190D01*
X53995238Y-94104761D02*
X53947619Y-94009523D01*
X53947619Y-93819047D01*
X53995238Y-93723809D01*
X54042857Y-93676190D01*
X54138095Y-93628571D01*
X54423809Y-93628571D01*
X54519047Y-93676190D01*
X54566666Y-93723809D01*
X54614285Y-93819047D01*
X54614285Y-94009523D01*
X54566666Y-94104761D01*
X53995238Y-94961904D02*
X53947619Y-94866666D01*
X53947619Y-94676190D01*
X53995238Y-94580952D01*
X54090476Y-94533333D01*
X54471428Y-94533333D01*
X54566666Y-94580952D01*
X54614285Y-94676190D01*
X54614285Y-94866666D01*
X54566666Y-94961904D01*
X54471428Y-95009523D01*
X54376190Y-95009523D01*
X54280952Y-94533333D01*
X53947619Y-95438095D02*
X54614285Y-95438095D01*
X54519047Y-95438095D02*
X54566666Y-95485714D01*
X54614285Y-95580952D01*
X54614285Y-95723809D01*
X54566666Y-95819047D01*
X54471428Y-95866666D01*
X53947619Y-95866666D01*
X54471428Y-95866666D02*
X54566666Y-95914285D01*
X54614285Y-96009523D01*
X54614285Y-96152380D01*
X54566666Y-96247619D01*
X54471428Y-96295238D01*
X53947619Y-96295238D01*
X53995238Y-97152380D02*
X53947619Y-97057142D01*
X53947619Y-96866666D01*
X53995238Y-96771428D01*
X54090476Y-96723809D01*
X54471428Y-96723809D01*
X54566666Y-96771428D01*
X54614285Y-96866666D01*
X54614285Y-97057142D01*
X54566666Y-97152380D01*
X54471428Y-97200000D01*
X54376190Y-97200000D01*
X54280952Y-96723809D01*
X54614285Y-97628571D02*
X53947619Y-97628571D01*
X54519047Y-97628571D02*
X54566666Y-97676190D01*
X54614285Y-97771428D01*
X54614285Y-97914285D01*
X54566666Y-98009523D01*
X54471428Y-98057142D01*
X53947619Y-98057142D01*
X54614285Y-98390476D02*
X54614285Y-98771428D01*
X54947619Y-98533333D02*
X54090476Y-98533333D01*
X53995238Y-98580952D01*
X53947619Y-98676190D01*
X53947619Y-98771428D01*
X53995238Y-99819047D02*
X53947619Y-99961904D01*
X53947619Y-100200000D01*
X53995238Y-100295238D01*
X54042857Y-100342857D01*
X54138095Y-100390476D01*
X54233333Y-100390476D01*
X54328571Y-100342857D01*
X54376190Y-100295238D01*
X54423809Y-100200000D01*
X54471428Y-100009523D01*
X54519047Y-99914285D01*
X54566666Y-99866666D01*
X54661904Y-99819047D01*
X54757142Y-99819047D01*
X54852380Y-99866666D01*
X54900000Y-99914285D01*
X54947619Y-100009523D01*
X54947619Y-100247619D01*
X54900000Y-100390476D01*
X54614285Y-100723809D02*
X53947619Y-100961904D01*
X54614285Y-101200000D02*
X53947619Y-100961904D01*
X53709523Y-100866666D01*
X53661904Y-100819047D01*
X53614285Y-100723809D01*
X53995238Y-101533333D02*
X53947619Y-101628571D01*
X53947619Y-101819047D01*
X53995238Y-101914285D01*
X54090476Y-101961904D01*
X54138095Y-101961904D01*
X54233333Y-101914285D01*
X54280952Y-101819047D01*
X54280952Y-101676190D01*
X54328571Y-101580952D01*
X54423809Y-101533333D01*
X54471428Y-101533333D01*
X54566666Y-101580952D01*
X54614285Y-101676190D01*
X54614285Y-101819047D01*
X54566666Y-101914285D01*
X54614285Y-102247619D02*
X54614285Y-102628571D01*
X54947619Y-102390476D02*
X54090476Y-102390476D01*
X53995238Y-102438095D01*
X53947619Y-102533333D01*
X53947619Y-102628571D01*
X53995238Y-103342857D02*
X53947619Y-103247619D01*
X53947619Y-103057142D01*
X53995238Y-102961904D01*
X54090476Y-102914285D01*
X54471428Y-102914285D01*
X54566666Y-102961904D01*
X54614285Y-103057142D01*
X54614285Y-103247619D01*
X54566666Y-103342857D01*
X54471428Y-103390476D01*
X54376190Y-103390476D01*
X54280952Y-102914285D01*
X53947619Y-103819047D02*
X54614285Y-103819047D01*
X54519047Y-103819047D02*
X54566666Y-103866666D01*
X54614285Y-103961904D01*
X54614285Y-104104761D01*
X54566666Y-104200000D01*
X54471428Y-104247619D01*
X53947619Y-104247619D01*
X54471428Y-104247619D02*
X54566666Y-104295238D01*
X54614285Y-104390476D01*
X54614285Y-104533333D01*
X54566666Y-104628571D01*
X54471428Y-104676190D01*
X53947619Y-104676190D01*
%TO.C,F3*%
X87146666Y-124698571D02*
X86813333Y-124698571D01*
X86813333Y-125222380D02*
X86813333Y-124222380D01*
X87289523Y-124222380D01*
X87575238Y-124222380D02*
X88194285Y-124222380D01*
X87860952Y-124603333D01*
X88003809Y-124603333D01*
X88099047Y-124650952D01*
X88146666Y-124698571D01*
X88194285Y-124793809D01*
X88194285Y-125031904D01*
X88146666Y-125127142D01*
X88099047Y-125174761D01*
X88003809Y-125222380D01*
X87718095Y-125222380D01*
X87622857Y-125174761D01*
X87575238Y-125127142D01*
D11*
%TO.C,F2*%
X76386252Y-56710000D02*
X73613748Y-56710000D01*
X76386252Y-53290000D02*
X73613748Y-53290000D01*
D12*
%TO.C,U2*%
X147500000Y-63500000D02*
X102500000Y-63500000D01*
X102500000Y-63500000D02*
X102500000Y-119500000D01*
X102500000Y-119500000D02*
X147500000Y-119500000D01*
X147500000Y-119500000D02*
X147500000Y-63500000D01*
D11*
%TO.C,F1*%
X123613748Y-53290000D02*
X126386252Y-53290000D01*
X123613748Y-56710000D02*
X126386252Y-56710000D01*
%TO.C,F4*%
X133925000Y-132500000D02*
X114115000Y-132500000D01*
X114115000Y-132500000D02*
X114115000Y-125770000D01*
X114115000Y-125770000D02*
X133925000Y-125770000D01*
X133925000Y-125770000D02*
X133925000Y-132500000D01*
D12*
%TO.C,U1*%
X97500000Y-63500000D02*
X52500000Y-63500000D01*
X52500000Y-63500000D02*
X52500000Y-119500000D01*
X52500000Y-119500000D02*
X97500000Y-119500000D01*
X97500000Y-119500000D02*
X97500000Y-63500000D01*
D11*
%TO.C,F3*%
X77575000Y-125770000D02*
X97385000Y-125770000D01*
X97385000Y-125770000D02*
X97385000Y-132500000D01*
X97385000Y-132500000D02*
X77575000Y-132500000D01*
X77575000Y-132500000D02*
X77575000Y-125770000D01*
%TD*%
M02*
